<svg id="Layer_1" data-name="Layer 1" xmlns="http://www.w3.org/2000/svg" viewBox="0 0 53.28 66.91"><defs><style>.cls-1{fill:#326ce5;}.cls-2{fill:#50a0ff;}.cls-3{fill:#3d9bf9;}</style></defs><title>secure-lock-kubernetes</title><path class="cls-1" d="M23.08,55.79" transform="translate(0.1)"/><path class="cls-2" d="M53.18,0h0Z" transform="translate(0.1)"/><path class="cls-2" d="M53.18,25.4h0Z" transform="translate(0.1)"/><path class="cls-3" d="M11.8,29.3V19.4A11.19,11.19,0,0,1,23.06,8.6h0V0A18.34,18.34,0,0,0,4.7,17.7L4.65,31Z" transform="translate(0.1)"/><path class="cls-3" d="M23,35.3" transform="translate(0.1)"/><path class="cls-1" d="M19.3,48.85a.94.94,0,0,0-.91-.73l-.19,0h0l-5.52.94a11.08,11.08,0,0,0,4.45,5.56l2.14-5.17,0,0A.93.93,0,0,0,19.3,48.85Z" transform="translate(0.1)"/><path class="cls-1" d="M19.92,40.63a.94.94,0,0,0,1.5-.72h0l.32-5.61a11.28,11.28,0,0,0-1.14.2,11,11,0,0,0-5.31,2.89l4.6,3.26Z" transform="translate(0.1)"/><path class="cls-1" d="M17.47,44.87a.94.94,0,0,0,.37-1.62v0l-4.2-3.76a11,11,0,0,0-1.56,7l5.39-1.55Z" transform="translate(0.1)"/><path class="cls-1" d="M24.76,39.89a.94.94,0,0,0,1.5.72h0l4.57-3.24a11.11,11.11,0,0,0-6.41-3.09l.32,5.6Z" transform="translate(0.1)"/><polygon class="cls-1" points="21.65 46.52 23.2 47.27 24.74 46.53 25.13 44.86 24.06 43.52 22.34 43.52 21.27 44.85 21.65 46.52"/><path class="cls-1" d="M46.22,49.28,42.24,32a3,3,0,0,0-.73-1.36L41.42,17.8A18.43,18.43,0,0,0,23,0V8.6a11.24,11.24,0,0,1,11.3,10.7v7.61l-9.89-4.72a3.11,3.11,0,0,0-2.68,0L5.63,29.9A3.06,3.06,0,0,0,4,32L0,49.29A3,3,0,0,0,.4,51.63l.18.24L11.74,65.76a3.09,3.09,0,0,0,2.41,1.15H32.05a3.09,3.09,0,0,0,2.41-1.15L45.63,51.87A3,3,0,0,0,46.22,49.28Zm-4.3.29a1.13,1.13,0,0,1-1.38.78h0l-.28-.06a8.92,8.92,0,0,1-1-.37,10,10,0,0,0-1.87-.55.85.85,0,0,0-.6.22l-.46-.08a13.92,13.92,0,0,1-6.17,7.76,3.67,3.67,0,0,0,.18.43.84.84,0,0,0-.08.63,10,10,0,0,0,.95,1.7,8.92,8.92,0,0,1,.57.85l.14.29a1.07,1.07,0,1,1-1.93.91l-.13-.27a9,9,0,0,1-.31-1,10,10,0,0,0-.73-1.8.85.85,0,0,0-.55-.33l-.23-.41a13.85,13.85,0,0,1-9.87,0l-.24.44a.87.87,0,0,0-.46.22,7.48,7.48,0,0,0-.83,1.92,8.94,8.94,0,0,1-.31,1l-.13.27h0a1.07,1.07,0,1,1-1.93-.92l.14-.29a9,9,0,0,1,.57-.86,10.45,10.45,0,0,0,1-1.74,1.06,1.06,0,0,0-.1-.61l.19-.47a13.92,13.92,0,0,1-6.17-7.7l-.47.08a1.18,1.18,0,0,0-.61-.22,10,10,0,0,0-1.87.55,8.94,8.94,0,0,1-1,.37l-.28.06h0a1.07,1.07,0,1,1-.48-2.08h0l.29-.07a9,9,0,0,1,1-.08,10,10,0,0,0,1.92-.32,1.48,1.48,0,0,0,.46-.46l.45-.13a13.85,13.85,0,0,1,2.18-9.65l-.34-.31a1.19,1.19,0,0,0-.21-.62,10,10,0,0,0-1.59-1.12A8.9,8.9,0,0,1,8.49,35l-.22-.18h0A1.13,1.13,0,0,1,8,33.26a1,1,0,0,1,.85-.38,1.27,1.27,0,0,1,.75.28l.24.19a8.91,8.91,0,0,1,.7.75A10,10,0,0,0,12,35.4a.85.85,0,0,0,.64.06l.39.27a13.76,13.76,0,0,1,7-4,13.93,13.93,0,0,1,1.93-.3l0-.45a1.17,1.17,0,0,0,.35-.55,10,10,0,0,0-.12-1.94,8.9,8.9,0,0,1-.15-1c0-.08,0-.19,0-.27s0,0,0,0a1.08,1.08,0,1,1,2.14,0c0,.09,0,.22,0,.3a8.93,8.93,0,0,1-.15,1,10,10,0,0,0-.12,1.94.85.85,0,0,0,.35.53c0,.08,0,.34,0,.48a14,14,0,0,1,8.88,4.29l.41-.29a1.19,1.19,0,0,0,.65-.07,10,10,0,0,0,1.44-1.31,9,9,0,0,1,.71-.75l.24-.19a1.08,1.08,0,1,1,1.33,1.67L37.7,35a9,9,0,0,1-.89.52,10,10,0,0,0-1.59,1.12.84.84,0,0,0-.2.61l-.38.34a13.9,13.9,0,0,1,2.23,9.63l.43.13a1.2,1.2,0,0,0,.46.46,10,10,0,0,0,1.92.32,8.94,8.94,0,0,1,1,.08l.31.07A1.13,1.13,0,0,1,41.92,49.58Z" transform="translate(0.1)"/><path class="cls-1" d="M32.53,39.47h0l-4.18,3.74h0a.94.94,0,0,0,.37,1.62v0l5.41,1.56a11.22,11.22,0,0,0-1.61-7Z" transform="translate(0.1)"/><path class="cls-1" d="M28,48.11l-.22,0a.95.95,0,0,0-.82,1.32h0l2.16,5.22A11,11,0,0,0,33.55,49L28,48.1Z" transform="translate(0.1)"/><path class="cls-1" d="M23.93,50.88a1,1,0,0,0-.86-.5h0a.94.94,0,0,0-.8.5h0l-2.72,4.91a11.06,11.06,0,0,0,6,.31,11.29,11.29,0,0,0,1.09-.3l-2.72-4.92Z" transform="translate(0.1)"/></svg>