<?xml version="1.0" encoding="utf-8"?>
<!-- Generator: Adobe Illustrator 19.2.1, SVG Export Plug-In . SVG Version: 6.00 Build 0)  -->
<svg version="1.1" id="Layer_1" xmlns="http://www.w3.org/2000/svg" xmlns:xlink="http://www.w3.org/1999/xlink" x="0px" y="0px"
	 viewBox="0 0 100 100" style="enable-background:new 0 0 100 100;" xml:space="preserve">
<style type="text/css">
	.st0{fill:#AE72E5;}
	.st1{fill:#FFFFFF;}
	.st2{fill:#724396;}
	.st3{fill:none;stroke:#000000;stroke-width:3;stroke-miterlimit:10;}
</style>
<g>
	<path class="st0" d="M62.2,38.9v11.7H39.6V38.9c-7,4-11.8,11.5-11.8,20.2c0,12.8,10.4,23.1,23.1,23.1S74.1,71.8,74.1,59
		C74.1,50.4,69.3,42.9,62.2,38.9z"/>
	<path class="st0" d="M69.3,32.9c-0.3-9.8-8.4-17.7-18.4-17.7s-18.1,7.9-18.4,17.7l0,0L32.4,59h37V32.9L69.3,32.9z M62.4,50.6H39.6
		v-16l0,0c0.2-6.1,5.2-10.8,11.3-10.8s11.1,4.9,11.3,10.8l0,0v16H62.4z"/>
	<path class="st1" d="M55.5,57.4c0-2.5-2-4.6-4.6-4.6s-4.6,2-4.6,4.6c0,1.7,0.8,3,2.2,3.9v7.4l0,0c0,0,0,0,0,0.2
		c0,1.4,1,2.4,2.4,2.4s2.4-1,2.4-2.4c0,0,0,0,0-0.2l0,0v-7.4C54.7,60.6,55.5,59,55.5,57.4z"/>
	<path class="st2" d="M69.3,32.9c-0.3-9.8-8.4-17.7-18.4-17.7v8.4c6.1,0,11.1,4.9,11.3,10.8l0,0v16H50.9v8.4h18.6L69.3,32.9
		L69.3,32.9z"/>
	<path d="M50.9,40.7v36.8c10.1,0,18.4-8.3,18.4-18.4S61.1,40.7,50.9,40.7z"/>
	<path class="st2" d="M62.2,38.9v11.7H50.9v31.6c12.8,0,23.1-10.3,23.1-23.1C74.1,50.5,69.3,42.9,62.2,38.9z"/>
	<circle class="st0" cx="50.9" cy="59" r="18.4"/>
	<path class="st2" d="M50.9,40.7v36.8c10.1,0,18.4-8.3,18.4-18.4S61.1,40.7,50.9,40.7z"/>
	<circle class="st1" cx="51" cy="61.9" r="9.1"/>
	<polyline class="st3" points="56.4,57.6 50.9,65.8 46.4,63 	"/>
</g>
</svg>
