<svg xmlns="http://www.w3.org/2000/svg" width="150" height="150" viewBox="0 0 150 150"><path fill="#326CE5" d="M74.797 46.634c-.517.025-1.024.154-1.49.375l-20.33 9.716c-1.066.51-1.84 1.472-2.104 2.614l-5.015 21.822c-.234 1.015-.044 2.08.528 2.955.07.106.143.207.22.307L60.68 101.92c.738.918 1.857 1.45 3.04 1.45l22.566-.005c1.183 0 2.3-.53 3.04-1.447l14.066-17.5c.738-.916 1.014-2.117.75-3.26L99.12 59.334c-.263-1.145-1.038-2.107-2.104-2.615l-20.33-9.71c-.588-.28-1.237-.41-1.887-.376z"/><path fill="#FFF" d="M74.998 54.06c-.67 0-1.216.605-1.216 1.352l.002.034c0 .1-.006.223-.002.312.016.432.11.76.167 1.156.1.85.187 1.554.133 2.208-.05.247-.232.473-.395.63l-.03.516c-.73.06-1.464.17-2.2.336-3.16.718-5.88 2.346-7.95 4.543-.135-.092-.37-.26-.44-.312-.216.03-.437.098-.722-.07-.544-.366-1.04-.872-1.64-1.48-.275-.293-.475-.57-.802-.85-.074-.064-.188-.152-.27-.217-.256-.203-.558-.31-.848-.32-.374-.013-.734.134-.97.43-.418.525-.284 1.326.3 1.793.006.007.012.01.018.015.08.066.18.148.253.202.347.257.663.388 1.008.59.73.45 1.332.823 1.81 1.272.187.198.22.55.244.7l.39.35c-2.09 3.14-3.055 7.022-2.483 10.977l-.51.148c-.134.174-.324.447-.522.53-.626.194-1.332.267-2.18.356-.4.034-.745.015-1.17.095-.09.018-.22.053-.323.074-.003 0-.007 0-.01.003l-.02.006c-.716.17-1.177.833-1.03 1.48.15.65.85 1.045 1.572.89l.018-.002.023-.01c.1-.02.227-.045.315-.07.417-.11.717-.273 1.09-.418.807-.29 1.473-.53 2.123-.624.27-.02.557.167.7.247l.53-.09c1.22 3.783 3.778 6.84 7.017 8.762l-.22.53c.078.206.166.484.107.69-.236.61-.64 1.257-1.1 1.978-.225.333-.453.59-.654.973-.048.092-.11.23-.156.328-.312.67-.083 1.44.518 1.73.604.29 1.354-.017 1.68-.687v-.004c.047-.098.113-.223.152-.31.172-.396.23-.734.352-1.116.32-.81.498-1.658.94-2.188.122-.146.32-.2.524-.256l.276-.5c2.824 1.085 5.985 1.376 9.142.66.72-.165 1.416-.376 2.088-.63.078.137.222.402.26.468.208.067.437.103.622.377.33.564.56 1.236.834 2.045.12.383.182.72.354 1.115.04.09.105.218.15.312.324.67 1.077.98 1.683.688.6-.29.83-1.06.518-1.73-.045-.095-.11-.233-.157-.325-.202-.383-.43-.638-.653-.97-.46-.722-.842-1.32-1.078-1.933-.1-.315.016-.512.093-.717-.046-.054-.144-.352-.202-.493 3.365-1.987 5.85-5.16 7.015-8.825.157.027.432.074.52.092.185-.12.352-.278.683-.253.65.094 1.317.335 2.122.625.374.143.676.31 1.092.42.088.024.215.047.314.068l.023.007c.007 0 .015 0 .02.003.722.156 1.423-.238 1.57-.89.148-.65-.312-1.308-1.03-1.48-.104-.024-.252-.064-.354-.083-.423-.08-.768-.062-1.167-.095-.852-.09-1.557-.16-2.182-.36-.256-.097-.438-.402-.526-.525l-.49-.144c.255-1.844.185-3.763-.255-5.68-.445-1.94-1.23-3.712-2.28-5.272.125-.112.363-.323.43-.387.02-.218.005-.446.23-.688.48-.45 1.08-.822 1.81-1.27.346-.205.664-.336 1.012-.592.077-.06.185-.148.267-.217.583-.466.718-1.268.3-1.793s-1.23-.576-1.816-.11c-.082.066-.195.15-.27.217-.326.28-.528.558-.803.85-.6.61-1.096 1.118-1.64 1.484-.237.138-.583.09-.74.08l-.462.33c-2.64-2.765-6.232-4.534-10.102-4.88-.01-.162-.024-.455-.028-.542-.16-.15-.35-.28-.397-.61-.053-.653.035-1.357.137-2.207.057-.396.15-.725.167-1.156.004-.1-.002-.24-.002-.347-.004-.747-.55-1.353-1.222-1.353zm-1.523 9.44l-.362 6.382-.026.013c-.024.57-.494 1.027-1.07 1.027-.237 0-.456-.076-.633-.205l-.01.005-5.234-3.712c1.608-1.583 3.667-2.75 6.037-3.29.433-.096.867-.17 1.298-.22zm3.05 0c2.768.338 5.328 1.592 7.29 3.514l-5.2 3.688-.02-.008c-.46.336-1.11.252-1.47-.197-.148-.186-.226-.402-.235-.623l-.005-.002-.36-6.373zM64.24 69.393l4.78 4.275-.006.024c.43.375.495 1.025.135 1.48-.146.183-.344.308-.555.366l-.005.02-6.125 1.768c-.314-2.852.36-5.623 1.777-7.934zm21.48.002c.71 1.152 1.247 2.438 1.567 3.832.315 1.377.395 2.75.264 4.08l-6.157-1.775-.004-.025c-.553-.15-.89-.71-.763-1.273.053-.23.175-.426.34-.57l-.002-.013 4.753-4.256zM74.018 74h1.957l1.216 1.52-.437 1.9-1.758.844-1.762-.847-.437-1.898L74.02 74zm6.275 5.205c.082-.004.165.004.246.018l.012-.012 6.337 1.07c-.93 2.606-2.704 4.864-5.074 6.375l-2.46-5.94.008-.012c-.226-.524 0-1.14.52-1.392.132-.062.272-.097.41-.105zm-10.642.026c.483.008.917.343 1.03.836.052.23.027.46-.06.66l.02.023-2.435 5.88c-2.275-1.46-4.088-3.645-5.057-6.328l6.283-1.066.01.014c.07-.014.14-.02.21-.02zm5.307 2.578c.168-.005.34.03.5.107.214.103.378.263.482.458h.023l3.097 5.596c-.402.132-.815.25-1.238.345-2.368.537-4.73.375-6.866-.354l3.09-5.582h.004c.186-.35.537-.556.908-.57z"/></svg>