<?xml version="1.0" encoding="utf-8"?>
<!-- Generator: Adobe Illustrator 19.2.1, SVG Export Plug-In . SVG Version: 6.00 Build 0)  -->
<svg version="1.1" id="Layer_1" xmlns="http://www.w3.org/2000/svg" xmlns:xlink="http://www.w3.org/1999/xlink" x="0px" y="0px"
	 viewBox="0 0 46.3 67" style="enable-background:new 0 0 46.3 67;" xml:space="preserve">
<style type="text/css">
	.st0{fill:#AE72E5;}
	.st1{fill:#FFFFFF;}
	.st2{fill:#724396;}
	.st3{fill:none;stroke:#000000;stroke-width:3;stroke-miterlimit:10;}
</style>
<g>
	<path class="st0" d="M34.4,23.7v11.7H11.8V23.7C4.8,27.7,0,35.2,0,43.9C0,56.7,10.4,67,23.1,67s23.2-10.4,23.2-23.2
		C46.3,35.2,41.5,27.7,34.4,23.7z"/>
	<path class="st0" d="M41.5,17.7C41.2,7.9,33.1,0,23.1,0S5,7.9,4.7,17.7l0,0L4.6,43.8h37L41.5,17.7L41.5,17.7z M34.6,35.4H11.8v-16
		l0,0C12,13.3,17,8.6,23.1,8.6s11.1,4.9,11.3,10.8l0,0v16H34.6z"/>
	<path class="st1" d="M27.7,42.2c0-2.5-2-4.6-4.6-4.6s-4.6,2-4.6,4.6c0,1.7,0.8,3,2.2,3.9v7.4l0,0c0,0,0,0,0,0.2
		c0,1.4,1,2.4,2.4,2.4s2.4-1,2.4-2.4c0,0,0,0,0-0.2l0,0v-7.4C26.9,45.4,27.7,43.8,27.7,42.2z"/>
	<path class="st2" d="M41.5,17.7C41.2,7.9,33.1,0,23.1,0v8.4c6.1,0,11.1,4.9,11.3,10.8l0,0v16H23.1v8.4h18.6L41.5,17.7L41.5,17.7z"
		/>
	<path d="M23.1,25.5v36.8c10.1,0,18.4-8.3,18.4-18.4S33.3,25.5,23.1,25.5z"/>
	<path class="st2" d="M34.4,23.7v11.7H23.1V67c12.8,0,23.1-10.3,23.1-23.1C46.3,35.3,41.5,27.7,34.4,23.7z"/>
	<circle class="st0" cx="23.1" cy="43.8" r="18.4"/>
	<path class="st2" d="M23.1,25.5v36.8c10.1,0,18.4-8.3,18.4-18.4S33.3,25.5,23.1,25.5z"/>
	<circle class="st1" cx="23.2" cy="46.7" r="9.1"/>
	<polyline class="st3" points="28.6,42.4 23.1,50.6 18.6,47.8 	"/>
</g>
</svg>
