<svg xmlns="http://www.w3.org/2000/svg" width="512" height="512" viewBox="0 0 512 512"><path fill="#008cdb" d="M227.1 289.9c-.8-3.3-3.7-5.5-6.9-5.6-.5 0-.9 0-1.4.1l-.1-.1-42.1 7.1c6.5 18 18.6 32.6 33.9 42.4l16.3-39.4-.1-.2c.6-1.2.7-2.7.4-4.3zM213.1 259.6c1.4-.4 2.7-1.2 3.7-2.5 2.4-3 2-7.4-.9-9.9v-.2l-32-28.6c-9.5 15.5-14 34-11.9 53.1l41-11.8.1-.1zM268.7 221.7c.1 1.5.6 2.9 1.6 4.2 2.4 3 6.8 3.6 9.9 1.3l.1.1 34.8-24.7c-13.1-12.9-30.3-21.3-48.8-23.5l2.4 42.6zM244.2 272.2l11.8 5.7 11.8-5.7 2.9-12.7-8.2-10.2h-13.1l-8.1 10.2zM231.8 227.3c1.2.9 2.6 1.4 4.2 1.4 3.9 0 7-3.1 7.2-6.9l.2-.1 2.4-42.7c-2.9.4-5.8.8-8.7 1.5-15.9 3.6-29.7 11.4-40.4 22l35.1 24.8zM327.8 218.5L296 247v.1c-1.1 1-1.9 2.3-2.3 3.8-.9 3.8 1.4 7.5 5.1 8.5v.2l41.2 11.9c.9-8.9.3-18.1-1.8-27.3-2-9.4-5.6-18-10.4-25.7z"/><path fill="#008cdb" d="M451.2 297.2l-33.6-146.1c-1.8-7.7-6.9-14.1-14.1-17.5l-136.2-65c-3.9-1.9-8.3-2.7-12.6-2.5-3.5.2-6.9 1-10 2.5l-136.2 65.1c-7.1 3.4-12.3 9.9-14.1 17.5L60.8 297.3c-1.6 6.8-.3 13.9 3.5 19.8l1.5 2.1L160 436.4c4.9 6.1 12.4 9.7 20.4 9.7h151.1c7.9 0 15.4-3.6 20.4-9.7l94.2-117.2c5-6.3 6.8-14.3 5.1-22zm-51.8-1.8c-1 4.4-5.7 7-10.5 6h-.1c-.1 0-.1 0-.2-.1-.7-.1-1.5-.3-2.1-.5-2.8-.7-4.8-1.9-7.3-2.8-5.4-1.9-9.9-3.5-14.2-4.2-2.2-.2-3.3.9-4.6 1.7-.6-.1-2.4-.4-3.5-.6-7.8 24.5-24.4 45.8-47 59.1.4.9 1 2.9 1.4 3.3-.5 1.4-1.3 2.7-.6 4.8 1.6 4.1 4.1 8.1 7.2 12.9 1.5 2.2 3 3.9 4.4 6.5.3.6.8 1.5 1.1 2.2 2.1 4.5.6 9.6-3.5 11.6s-9.1-.1-11.3-4.6c-.3-.6-.7-1.5-1-2.1-1.2-2.6-1.6-4.9-2.4-7.5-1.9-5.4-3.4-9.9-5.6-13.7-1.2-1.8-2.8-2.1-4.2-2.5-.3-.4-1.2-2.2-1.7-3.1-4.5 1.7-9.2 3.1-14 4.2-21.1 4.8-42.3 2.9-61.2-4.4l-1.8 3.3c-1.4.4-2.7.7-3.5 1.7-3 3.5-4.2 9.2-6.3 14.6-.8 2.6-1.2 4.8-2.4 7.5-.3.6-.7 1.4-1 2.1-2.2 4.5-7.2 6.5-11.2 4.6s-5.6-7.1-3.5-11.6c.3-.6.7-1.6 1-2.2 1.3-2.6 2.9-4.3 4.4-6.5 3.1-4.8 5.8-9.2 7.4-13.3.4-1.4-.2-3.2-.7-4.6l1.5-3.6c-21.7-12.9-38.8-33.3-47-58.7l-3.6.6c-1-.5-2.9-1.8-4.7-1.7-4.4.6-8.8 2.2-14.2 4.2-2.5 1-4.5 2.1-7.3 2.8-.6.2-1.4.3-2.1.5-.1 0-.1 0-.2.1h-.1c-4.8 1-9.5-1.6-10.5-6-1-4.3 2.1-8.8 6.9-9.9h.2c.7-.2 1.6-.4 2.2-.5 2.8-.5 5.1-.4 7.8-.6 5.7-.6 10.4-1.1 14.6-2.4 1.3-.5 2.6-2.4 3.5-3.5l3.4-1c-3.8-26.5 2.6-52.5 16.6-73.5l-2.6-2.3c-.2-1-.4-3.4-1.6-4.7-3.2-3-7.2-5.5-12.1-8.5-2.3-1.4-4.4-2.2-6.8-4-.5-.4-1.2-.9-1.7-1.4l-.1-.1c-3.9-3.1-4.8-8.5-2-12 1.6-2 4-3 6.5-2.9 1.9.1 4 .8 5.7 2.1.6.4 1.3 1 1.8 1.4 2.2 1.9 3.5 3.7 5.4 5.7 4 4.1 7.3 7.5 11 9.9 1.9 1.1 3.4.7 4.8.5.5.3 2 1.5 2.9 2.1 13.9-14.7 32.1-25.6 53.2-30.4 4.9-1.1 9.8-1.9 14.7-2.3l.2-3.4c1.1-1.1 2.3-2.6 2.6-4.2.4-4.4-.2-9.1-.9-14.8-.4-2.7-1-4.9-1.1-7.7v-2.1-.2c0-5 3.6-9.1 8.1-9.1s8.1 4.1 8.1 9.1v2.3c-.1 2.9-.7 5.1-1.1 7.7-.7 5.7-1.3 10.4-.9 14.8.3 2.2 1.6 3.1 2.7 4.1 0 .6.1 2.6.2 3.6 25.9 2.3 50 14.2 67.6 32.7l3.1-2.2c1.1.1 3.4.4 4.9-.5 3.6-2.5 7-5.9 11-9.9 1.8-2 3.2-3.8 5.4-5.7.5-.4 1.3-1 1.8-1.4 3.9-3.1 9.3-2.8 12.2.7s1.9 8.9-2 12c-.6.4-1.3 1.1-1.8 1.4-2.3 1.7-4.5 2.6-6.8 4-4.9 3-8.9 5.5-12.1 8.5-1.5 1.6-1.4 3.2-1.5 4.6-.5.4-2 1.8-2.9 2.6 7 10.5 12.3 22.3 15.3 35.3 3 12.9 3.4 25.7 1.7 38l3.3 1c.6.8 1.8 2.9 3.5 3.5 4.2 1.3 8.9 1.8 14.6 2.4 2.7.2 5 .1 7.8.6.7.1 1.7.4 2.4.6 4.9 1.3 8 5.7 7 10z"/><path fill="#008cdb" d="M262.3 305.4c-.7-1.3-1.8-2.4-3.2-3.1-1.1-.5-2.2-.8-3.4-.7-2.5.1-4.8 1.5-6.1 3.8l-20.7 37.4c14.3 4.9 30.1 6 46 2.4 2.8-.6 5.6-1.4 8.3-2.3l-20.7-37.5h-.2zM293.1 284.3c-.5-.1-1.1-.2-1.7-.1-.9 0-1.9.3-2.8.7-3.5 1.7-5 5.8-3.5 9.3l-.1.1 16.5 39.8c15.9-10.1 27.8-25.2 34-42.7l-42.4-7.1z"/></svg>