<?xml version="1.0" encoding="utf-8"?>
<!-- Generator: Adobe Illustrator 25.0.0, SVG Export Plug-In . SVG Version: 6.00 Build 0)  -->
<svg version="1.1" xmlns="http://www.w3.org/2000/svg" xmlns:xlink="http://www.w3.org/1999/xlink" x="0px" y="0px" width="864px"
	 height="432px" viewBox="0 0 864 432" style="enable-background:new 0 0 864 432;" xml:space="preserve">
<style type="text/css">
	.st0{fill:#F4F4F4;stroke:#0F62FE;stroke-width:2;stroke-miterlimit:10;}
	.st1{fill:none;stroke:#0F62FE;stroke-width:2;stroke-miterlimit:10;}
	.st2{fill:none;stroke:#979797;stroke-width:2;stroke-miterlimit:10;stroke-dasharray:4,4;}
	.st3{fill:none;stroke:#2467F4;stroke-width:2;stroke-miterlimit:10;}
	.st4{fill:none;stroke:#969696;stroke-miterlimit:10;stroke-dasharray:4,4;}
	.st5{fill:none;stroke:#969696;stroke-width:2;stroke-miterlimit:10;}
	.st6{fill:#FFFFFF;stroke:#000000;stroke-miterlimit:10;}
	.st7{fill:#FFFFFF;stroke:#0F62FE;stroke-width:2;stroke-miterlimit:10;}
	.st8{fill:#FD783D;}
	.st9{fill:#FDA578;}
	.st10{fill:none;}
	.st11{fill:#1CB3A0;}
	.st12{fill:#4AD5C3;}
	.st13{filter:url(#Adobe_OpacityMaskFilter);}
	.st14{fill:#FFFFFF;}
	.st15{fill:url(#SVGID_1_);}
	.st16{mask:url(#ad64d206-7b2b-4368-b62d-adee73950f0d_2_);}
	.st17{fill:url(#SVGID_2_);}
	.st18{fill:#032068;}
	.st19{clip-path:url(#SVGID_4_);}
	.st20{clip-path:url(#SVGID_6_);}
	.st21{fill:#273237;}
	.st22{clip-path:url(#SVGID_8_);}
	.st23{fill:#3E4B53;}
	.st24{clip-path:url(#SVGID_10_);}
	.st25{fill:#3881A1;}
	.st26{clip-path:url(#SVGID_12_);}
	.st27{fill:#4BABCC;}
	.st28{clip-path:url(#SVGID_14_);}
	.st29{fill:#357A69;}
	.st30{clip-path:url(#SVGID_16_);}
	.st31{fill:#4EAD99;}
	.st32{filter:url(#Adobe_OpacityMaskFilter_1_);}
	.st33{fill:url(#SVGID_17_);}
	.st34{mask:url(#Color_2_);fill:url(#Color_3_);}
	.st35{fill:#4090FC;}
	.st36{fill:#4589FF;}
	.st37{filter:url(#Adobe_OpacityMaskFilter_2_);}
	.st38{fill:url(#SVGID_19_);}
	.st39{mask:url(#SVGID_18_);fill:url(#SVGID_20_);}
	.st40{fill:#2E3737;}
	.st41{fill:#586565;}
	.st42{fill:#FCE77F;}
	.st43{fill:#FCD432;}
	.st44{fill:#030506;}
	.st45{fill:#3D4747;}
	.st46{fill:#975AD1;}
	.st47{fill:#FC42A0;}
	.st48{fill:#64BC46;}
	.st49{clip-path:url(#SVGID_22_);}
	.st50{clip-path:url(#SVGID_24_);}
	.st51{clip-path:url(#SVGID_26_);}
	.st52{clip-path:url(#SVGID_28_);}
	.st53{clip-path:url(#SVGID_30_);}
	.st54{clip-path:url(#SVGID_32_);}
	.st55{clip-path:url(#SVGID_34_);}
	.st56{filter:url(#Adobe_OpacityMaskFilter_3_);}
	.st57{fill:url(#SVGID_36_);}
	.st58{mask:url(#SVGID_35_);fill:url(#SVGID_37_);}
	.st59{clip-path:url(#SVGID_39_);}
	.st60{clip-path:url(#SVGID_41_);}
	.st61{clip-path:url(#SVGID_43_);}
	.st62{clip-path:url(#SVGID_45_);}
	.st63{clip-path:url(#SVGID_47_);}
	.st64{clip-path:url(#SVGID_49_);}
	.st65{clip-path:url(#SVGID_51_);}
	.st66{clip-path:url(#SVGID_53_);}
	.st67{clip-path:url(#SVGID_55_);}
	.st68{clip-path:url(#SVGID_57_);}
	.st69{clip-path:url(#SVGID_59_);}
	.st70{clip-path:url(#SVGID_61_);}
	.st71{clip-path:url(#SVGID_63_);}
	.st72{clip-path:url(#SVGID_65_);}
	.st73{fill:none;stroke:#000000;stroke-miterlimit:10;}
	.st74{clip-path:url(#SVGID_67_);}
	.st75{clip-path:url(#SVGID_69_);}
	.st76{clip-path:url(#SVGID_71_);}
	.st77{clip-path:url(#SVGID_73_);}
	.st78{clip-path:url(#SVGID_75_);}
	.st79{clip-path:url(#SVGID_77_);}
	.st80{clip-path:url(#SVGID_79_);}
	.st81{fill-rule:evenodd;clip-rule:evenodd;fill:#36C5F0;}
	.st82{fill-rule:evenodd;clip-rule:evenodd;fill:#2EB67D;}
	.st83{fill-rule:evenodd;clip-rule:evenodd;fill:#ECB22E;}
	.st84{fill-rule:evenodd;clip-rule:evenodd;fill:#E01E5A;}
	.st85{clip-path:url(#SVGID_81_);}
	.st86{clip-path:url(#SVGID_83_);}
	.st87{clip-path:url(#SVGID_85_);}
	.st88{clip-path:url(#SVGID_87_);}
	.st89{clip-path:url(#SVGID_89_);}
	.st90{clip-path:url(#SVGID_91_);}
	.st91{clip-path:url(#SVGID_93_);}
	.st92{fill:#FBFBFB;}
	.st93{fill:#F5C144;}
	.st94{filter:url(#Adobe_OpacityMaskFilter_4_);}
	.st95{fill:url(#SVGID_95_);}
	.st96{mask:url(#SVGID_94_);fill:url(#SVGID_96_);}
	.st97{clip-path:url(#SVGID_98_);}
	.st98{clip-path:url(#SVGID_100_);}
	.st99{clip-path:url(#SVGID_102_);}
	.st100{clip-path:url(#SVGID_104_);}
	.st101{clip-path:url(#SVGID_106_);}
	.st102{clip-path:url(#SVGID_108_);}
	.st103{clip-path:url(#SVGID_110_);}
	.st104{fill:#FFFFFF;stroke:#2467F4;stroke-width:2;stroke-miterlimit:10;}
	.st105{fill:#EC7F4C;}
	.st106{fill:#F0A780;}
	.st107{fill:#53AF9F;}
	.st108{fill:#73D1C2;}
	.st109{fill:#303737;}
	.st110{fill:#5A6565;}
	.st111{fill:#F8E58C;}
	.st112{fill:#F5D356;}
	.st113{fill:#3F4747;}
	.st114{fill:#8D61C9;}
	.st115{fill:#E8559D;}
	.st116{fill:#7AB757;}
	.st117{fill:#2B73F5;}
	.st118{clip-path:url(#SVGID_112_);}
	.st119{clip-path:url(#SVGID_114_);}
	.st120{clip-path:url(#SVGID_116_);}
	.st121{clip-path:url(#SVGID_118_);}
	.st122{clip-path:url(#SVGID_120_);}
	.st123{clip-path:url(#SVGID_122_);}
	.st124{clip-path:url(#SVGID_124_);}
	.st125{fill:#5291F3;}
	.st126{filter:url(#Adobe_OpacityMaskFilter_5_);}
	.st127{fill:url(#SVGID_126_);}
	.st128{mask:url(#SVGID_125_);fill:url(#SVGID_127_);}
	.st129{fill:#74A0D0;}
	.st130{clip-path:url(#SVGID_129_);}
	.st131{clip-path:url(#SVGID_131_);}
	.st132{clip-path:url(#SVGID_133_);}
	.st133{clip-path:url(#SVGID_135_);}
	.st134{clip-path:url(#SVGID_137_);}
	.st135{clip-path:url(#SVGID_139_);}
	.st136{clip-path:url(#SVGID_141_);}
	.st137{clip-path:url(#SVGID_143_);}
	.st138{clip-path:url(#SVGID_145_);}
	.st139{clip-path:url(#SVGID_147_);}
	.st140{clip-path:url(#SVGID_149_);}
	.st141{clip-path:url(#SVGID_151_);}
	.st142{clip-path:url(#SVGID_153_);}
	.st143{clip-path:url(#SVGID_155_);}
	.st144{clip-path:url(#SVGID_157_);}
	.st145{clip-path:url(#SVGID_159_);}
	.st146{clip-path:url(#SVGID_161_);}
	.st147{clip-path:url(#SVGID_163_);}
	.st148{clip-path:url(#SVGID_165_);}
	.st149{clip-path:url(#SVGID_167_);}
	.st150{clip-path:url(#SVGID_169_);}
	.st151{filter:url(#Adobe_OpacityMaskFilter_6_);}
	.st152{fill:url(#SVGID_171_);}
	.st153{mask:url(#SVGID_170_);fill:url(#SVGID_172_);}
	.st154{clip-path:url(#SVGID_174_);}
	.st155{clip-path:url(#SVGID_176_);}
	.st156{clip-path:url(#SVGID_178_);}
	.st157{clip-path:url(#SVGID_180_);}
	.st158{clip-path:url(#SVGID_182_);}
	.st159{clip-path:url(#SVGID_184_);}
	.st160{clip-path:url(#SVGID_186_);}
	.st161{clip-path:url(#SVGID_188_);}
	.st162{clip-path:url(#SVGID_190_);}
	.st163{clip-path:url(#SVGID_192_);}
	.st164{clip-path:url(#SVGID_194_);}
	.st165{clip-path:url(#SVGID_196_);}
	.st166{clip-path:url(#SVGID_198_);}
	.st167{clip-path:url(#SVGID_200_);}
	.st168{clip-path:url(#SVGID_202_);}
	.st169{clip-path:url(#SVGID_204_);}
	.st170{clip-path:url(#SVGID_206_);}
	.st171{clip-path:url(#SVGID_208_);}
	.st172{clip-path:url(#SVGID_210_);}
	.st173{clip-path:url(#SVGID_212_);}
	.st174{clip-path:url(#SVGID_214_);}
	.st175{fill-rule:evenodd;clip-rule:evenodd;fill:#181616;}
	.st176{filter:url(#Adobe_OpacityMaskFilter_7_);}
	.st177{fill:url(#SVGID_216_);}
	.st178{mask:url(#SVGID_215_);fill:url(#SVGID_217_);}
	.st179{fill:#4D9BD6;}
	.st180{fill:none;stroke:#FFFFFF;stroke-miterlimit:10;}
	.st181{fill:none;stroke:#FFFFFF;stroke-width:0.75;stroke-miterlimit:10;}
	.st182{filter:url(#Adobe_OpacityMaskFilter_8_);}
	.st183{fill:url(#SVGID_218_);}
	.st184{mask:url(#ad64d206-7b2b-4368-b62d-adee73950f0d_1_);}
	.st185{fill:url(#SVGID_219_);}
	.st186{filter:url(#Adobe_OpacityMaskFilter_9_);}
	.st187{fill:url(#SVGID_220_);}
	.st188{mask:url(#ad64d206-7b2b-4368-b62d-adee73950f0d_3_);}
	.st189{fill:url(#SVGID_221_);}
	.st190{filter:url(#Adobe_OpacityMaskFilter_10_);}
	.st191{fill:url(#SVGID_222_);}
	.st192{mask:url(#ad64d206-7b2b-4368-b62d-adee73950f0d_4_);}
	.st193{fill:url(#SVGID_223_);}
	.st194{filter:url(#Adobe_OpacityMaskFilter_11_);}
	.st195{fill:url(#SVGID_224_);}
	.st196{mask:url(#ad64d206-7b2b-4368-b62d-adee73950f0d_5_);}
	.st197{fill:url(#SVGID_225_);}
	.st198{clip-path:url(#SVGID_227_);}
	.st199{clip-path:url(#SVGID_229_);}
	.st200{clip-path:url(#SVGID_231_);}
	.st201{clip-path:url(#SVGID_233_);}
	.st202{clip-path:url(#SVGID_235_);}
	.st203{clip-path:url(#SVGID_237_);}
	.st204{clip-path:url(#SVGID_239_);}
	.st205{clip-path:url(#SVGID_241_);}
	.st206{clip-path:url(#SVGID_243_);}
	.st207{clip-path:url(#SVGID_245_);}
	.st208{clip-path:url(#SVGID_247_);}
	.st209{clip-path:url(#SVGID_249_);}
	.st210{clip-path:url(#SVGID_251_);}
	.st211{clip-path:url(#SVGID_253_);}
	.st212{display:none;}
	.st213{display:inline;opacity:0.53;fill:#1616FF;}
	.st214{display:inline;opacity:0.1;fill:#1616FF;}
	.st215{display:inline;opacity:0.24;fill:#1616FF;}
	.st216{display:inline;opacity:0.49;fill:#1616FF;}
	.st217{display:inline;opacity:0.38;fill:#1616FF;}
	.st218{display:inline;opacity:0.13;fill:#1616FF;}
	.st219{font-family:'IBMPlexSans-Medium';}
	.st220{font-size:14px;}
	.st221{font-family:'IBMPlexSans-Bold';}
	.st222{fill:#161616;}
	.st223{fill:#FFFFFF;stroke:#2467F4;stroke-width:2;stroke-miterlimit:10.0003;}
	.st224{filter:url(#Adobe_OpacityMaskFilter_12_);}
	.st225{fill:url(#SVGID_255_);}
	.st226{fill:url(#SVGID_256_);}
	.st227{mask:url(#SVGID_254_);fill:url(#SVGID_257_);}
	.st228{filter:url(#Adobe_OpacityMaskFilter_13_);}
	.st229{fill:url(#SVGID_258_);}
	.st230{fill:url(#SVGID_259_);}
	.st231{fill:url(#SVGID_260_);}
	.st232{mask:url(#Color_4_);fill:url(#Color_5_);}
	.st233{clip-path:url(#SVGID_262_);}
	.st234{clip-path:url(#SVGID_264_);}
	.st235{clip-path:url(#SVGID_266_);}
	.st236{clip-path:url(#SVGID_268_);}
	.st237{clip-path:url(#SVGID_270_);}
	.st238{clip-path:url(#SVGID_272_);}
	.st239{clip-path:url(#SVGID_274_);}
	.st240{clip-path:url(#SVGID_276_);}
	.st241{clip-path:url(#SVGID_278_);}
	.st242{clip-path:url(#SVGID_280_);}
	.st243{clip-path:url(#SVGID_282_);}
	.st244{clip-path:url(#SVGID_284_);}
	.st245{clip-path:url(#SVGID_286_);}
	.st246{clip-path:url(#SVGID_288_);}
	.st247{clip-path:url(#SVGID_290_);}
	.st248{clip-path:url(#SVGID_292_);}
	.st249{clip-path:url(#SVGID_294_);}
	.st250{clip-path:url(#SVGID_296_);}
	.st251{clip-path:url(#SVGID_298_);}
	.st252{clip-path:url(#SVGID_300_);}
	.st253{clip-path:url(#SVGID_302_);}
	.st254{clip-path:url(#SVGID_304_);}
	.st255{clip-path:url(#SVGID_306_);}
	.st256{clip-path:url(#SVGID_308_);}
	.st257{clip-path:url(#SVGID_310_);}
	.st258{clip-path:url(#SVGID_312_);}
	.st259{clip-path:url(#SVGID_314_);}
	.st260{clip-path:url(#SVGID_316_);}
	.st261{filter:url(#Adobe_OpacityMaskFilter_14_);}
	.st262{fill:url(#SVGID_318_);}
	.st263{mask:url(#SVGID_317_);fill:url(#SVGID_319_);}
	.st264{filter:url(#Adobe_OpacityMaskFilter_15_);}
	.st265{fill:url(#SVGID_320_);}
	.st266{mask:url(#ad64d206-7b2b-4368-b62d-adee73950f0d_6_);}
	.st267{fill:url(#SVGID_321_);}
	.st268{filter:url(#Adobe_OpacityMaskFilter_16_);}
	.st269{fill:url(#SVGID_322_);}
	.st270{mask:url(#ad64d206-7b2b-4368-b62d-adee73950f0d_7_);}
	.st271{fill:url(#SVGID_323_);}
	.st272{filter:url(#Adobe_OpacityMaskFilter_17_);}
	.st273{fill:url(#SVGID_324_);}
	.st274{mask:url(#Color_6_);fill:url(#Color_7_);}
	.st275{filter:url(#Adobe_OpacityMaskFilter_18_);}
	.st276{fill:url(#SVGID_326_);}
	.st277{mask:url(#SVGID_325_);fill:url(#SVGID_327_);}
	.st278{filter:url(#Adobe_OpacityMaskFilter_19_);}
	.st279{fill:url(#SVGID_329_);}
	.st280{mask:url(#SVGID_328_);fill:url(#SVGID_330_);}
	.st281{filter:url(#Adobe_OpacityMaskFilter_20_);}
	.st282{fill:url(#SVGID_331_);}
	.st283{mask:url(#ad64d206-7b2b-4368-b62d-adee73950f0d_8_);}
	.st284{fill:url(#SVGID_332_);}
	.st285{filter:url(#Adobe_OpacityMaskFilter_21_);}
	.st286{fill:url(#SVGID_334_);}
	.st287{mask:url(#SVGID_333_);fill:url(#SVGID_335_);}
</style>
<g id="Lines_x5F_backgroud">
	<line class="st3" x1="645.4" y1="206.6" x2="584.4" y2="206.6"/>
	<line class="st3" x1="521.4" y1="205.6" x2="461.4" y2="205.6"/>
	<line class="st3" x1="394.4" y1="206.6" x2="334.4" y2="206.6"/>
	<line class="st3" x1="266.4" y1="206.6" x2="205.4" y2="206.6"/>
	<line class="st3" x1="140.4" y1="206.6" x2="79.4" y2="206.6"/>
	<polyline class="st3" points="251.7,222 267.7,206 251.7,190 	"/>
	<polyline class="st3" points="123.7,222 139.7,206 123.7,190 	"/>
	<line id="Dashed_lin1_26_" class="st4" x1="299.4" y1="171.6" x2="299.4" y2="117"/>
	<line id="Dashed_line2_10_" class="st4" x1="358.9" y1="58.6" x2="379.4" y2="58.6"/>
	<polyline id="Dashed_lin1_25_" class="st4" points="302.4,278.6 302.4,341.6 302.6,341.6 373.4,341.6 	"/>
	<line id="Dashed_lin1_24_" class="st4" x1="550.4" y1="171.6" x2="550.4" y2="62.6"/>
	<line id="Dashed_line2_9_" class="st4" x1="551.4" y1="58.6" x2="469.4" y2="58.6"/>
	<line id="Dashed_line2_8_" class="st4" x1="328.4" y1="188.6" x2="358.9" y2="188.6"/>
	<line id="Dashed_lin1_23_" class="st4" x1="359.4" y1="188.6" x2="359.4" y2="62.6"/>
	<polyline id="Dashed_lin1_22_" class="st4" points="549.9,278.5 549.9,341.5 549.6,341.5 394.9,341.5 	"/>
	<polyline class="st5" points="307.4,125 299.4,117 291.4,125 	"/>
	<polyline class="st5" points="182.3,125 174.3,117 166.3,125 	"/>
	<polyline class="st5" points="166.3,161.2 174.3,169.2 182.3,161.2 	"/>
	<polyline class="st5" points="311.1,278 303.1,270 295.1,278 	"/>
	<polyline class="st5" points="557.9,278 549.9,270 541.9,278 	"/>
	<polyline class="st5" points="380.1,66.2 388.1,58.2 380.1,50.2 	"/>
	<polyline class="st5" points="470.4,66.2 462.4,58.2 470.4,50.2 	"/>
	<polyline class="st3" points="504.4,221.8 520.4,205.8 504.4,189.8 	"/>
	<polyline class="st3" points="627.7,222 643.7,206 627.7,190 	"/>
	<polyline class="st3" points="379.7,222 395.7,206 379.7,190 	"/>
	<line id="Dashed_line2_7_" class="st4" x1="208.4" y1="58.6" x2="269" y2="58.6"/>
	<line id="Dashed_lin1_16_" class="st4" x1="174.3" y1="161.6" x2="174.3" y2="125.6"/>
</g>
<g id="Icons">
	<g id="CI_Pipeline_1_">
		<circle class="st104" cx="300.6" cy="205.1" r="32"/>
		<g id="CI_x5F_CD_">
			<g id="e18fe981-7760-4f0f-92d6-295e583f5df5_2_">
				<g>
					<path class="st105" d="M313.8,207.4c-1.5,6.3-6.8,10.9-13.4,10.9c-4.1,0.1-8-1.8-10.4-5.2l7.2-7.4l0.8,0.8l-0.8-0.8l0,0
						l1.1,1.3l1.7-5.9l-5.8,1.7l1.1,1.1l-1.7,2l-4.9,5c-1-1.7-1.6-3.5-1.7-5.4l-2.1-3.1c-0.1,0.7-0.2,1.5-0.1,2.2
						c0,8.9,7.3,16.3,16.1,16.3c6.9-0.1,13-4.4,15.2-10.9L313.8,207.4z"/>
					<polyline class="st106" points="288.5,210.9 295.3,203.9 294.3,202.8 300,201.1 290,211 					"/>
				</g>
				<g>
					<path class="st106" d="M300.8,220.7c6.9-0.1,13-4.4,15.2-10.9l-1.1-1.3c-1.9,7.8-9.8,12.5-17.6,10.6
						c-6.7-1.6-11.3-7.7-11.1-14.5v-0.7l-0.8-1.5c-0.1,0.7-0.2,1.5-0.1,2.2c-0.3,8.6,6.6,15.8,15.2,16.1
						C300.5,220.7,300.6,220.7,300.8,220.7z"/>
					<line class="st10" x1="288.5" y1="211" x2="290" y2="211.6"/>
				</g>
			</g>
			<g id="b4a44eff-a6ab-4c1f-a314-3899682236f1_2_">
				<g>
					<path class="st107" d="M287.4,202.2c1.5-6.3,6.8-10.9,13.4-10.9c4.1-0.1,8,1.8,10.4,5.2l-7.2,7.4l-0.6-0.8l0.8,0.8l0,0
						l-1.3-1.3l-1.7,5.9l5.8-1.7l-1.1-1.1l2-2l4.9-5c0.8,1.7,1.4,3.6,1.5,5.4l2.1,3.1c0.1-0.6,0.2-1.3,0.1-2
						c0-8.9-7.2-16.3-16.1-16.3c-6.8,0.1-12.8,4.5-14.9,10.9L287.4,202.2z"/>
					<polyline class="st108" points="311.3,196.5 304,203.9 303,202.7 301.3,208.5 311,198.5 					"/>
				</g>
				<g>
					<path class="st108" d="M300.5,189c-6.9,0.1-13,4.4-15.2,10.9l1.1,1.3c1.9-7.8,9.8-12.5,17.6-10.6c6.7,1.6,11.3,7.7,11.1,14.5
						v0.7l1.1,1.5c0.1-0.6,0.2-1.3,0.1-2C316.2,196.1,309.2,189,300.5,189z"/>
					<line class="st10" x1="312.7" y1="198.5" x2="311.3" y2="198"/>
				</g>
			</g>
		</g>
	</g>
	<g id="DevOps_x5F_insights_12_">
		<g id="CRA_">
			<circle class="st6" cx="301.4" cy="57.1" r="32"/>
		</g>
	</g>
	<g id="CD_Pipeline_2_">
		<circle class="st104" cx="552.3" cy="205.1" r="32"/>
		<g id="CI_x5F_CD_">
			<g id="e18fe981-7760-4f0f-92d6-295e583f5df5_12_">
				<g>
					<path class="st105" d="M565.3,207.1c-1.5,6.3-6.8,10.9-13.4,10.9c-4.1,0.1-8-1.8-10.4-5.2l7.2-7.4l0.8,0.8l-0.8-0.8l0,0
						l1.1,1.3l1.7-5.9l-5.8,1.7l1.1,1.1l-1.7,2l-4.9,5c-1-1.7-1.6-3.5-1.7-5.4l-2.1-3.1c-0.1,0.7-0.2,1.5-0.1,2.2
						c0,8.9,7.3,16.3,16.1,16.3c6.9-0.1,13-4.4,15.2-10.9L565.3,207.1z"/>
					<polyline class="st106" points="539.9,210.6 546.7,203.6 545.7,202.5 551.5,200.8 541.5,210.7 					"/>
				</g>
				<g>
					<path class="st106" d="M551.5,220.4c6.9-0.1,13-4.4,15.2-10.9l-1.1-1.3c-1.9,7.8-9.8,12.5-17.6,10.6
						c-6.7-1.6-11.3-7.7-11.1-14.5v-0.7l-0.8-1.5c-0.1,0.7-0.2,1.5-0.1,2.2c-0.3,8.6,6.6,15.8,15.2,16.1
						C551.2,220.4,551.3,220.4,551.5,220.4z"/>
					<line class="st10" x1="539.9" y1="210.7" x2="541.5" y2="211.3"/>
				</g>
			</g>
			<g id="b4a44eff-a6ab-4c1f-a314-3899682236f1_12_">
				<g>
					<path class="st107" d="M538.8,201.9c1.5-6.3,6.8-10.9,13.4-10.9c4.1-0.1,8,1.8,10.4,5.2l-7.2,7.4l-0.6-0.8l0.8,0.8l0,0
						l-1.3-1.3l-1.7,5.9l5.8-1.7l-1.1-1.1l2-2l4.9-5c0.8,1.7,1.4,3.6,1.5,5.4l2.1,3.1c0.1-0.6,0.2-1.3,0.1-2
						c0-8.9-7.2-16.3-16.1-16.3c-6.8,0.1-12.8,4.5-14.9,10.9L538.8,201.9z"/>
					<polyline class="st108" points="562.7,196.2 555.4,203.6 554.4,202.3 552.7,208.2 562.5,198.1 					"/>
				</g>
				<g>
					<path class="st108" d="M552.2,188.6c-6.9,0.1-13,4.4-15.2,10.9l1.1,1.3c1.9-7.8,9.8-12.5,17.6-10.6c6.7,1.6,11.3,7.7,11.1,14.5
						v0.7l1.1,1.5c0.1-0.6,0.2-1.3,0.1-2C567.9,195.8,560.9,188.6,552.2,188.6z"/>
					<line class="st10" x1="564.2" y1="198.1" x2="562.7" y2="197.7"/>
				</g>
			</g>
		</g>
	</g>
	<g id="KeyP_6_">
		<g id="Evidence_29_">
			<circle class="st6" cx="483.6" cy="341.6" r="32"/>
		</g>
	</g>
	<g id="DevOps_x5F_insights_6_">
		<g id="Evidence_28_">
			<circle class="st6" cx="427.5" cy="59.1" r="32"/>
		</g>
		<g id="DevOps_">
			<path class="st109" d="M431.6,70l-7.6,0.5c-0.7,0-1.2-0.5-1.4-1.1l0,0c0-0.7,0.5-1.2,1.2-1.3l7.6-0.5c0.7,0,1.2,0.5,1.4,1.1l0,0
				C432.8,69.4,432.3,69.9,431.6,70z"/>
			<path class="st109" d="M431.6,73.5L424,74c-0.7,0-1.3-0.4-1.4-1.1l0,0c0-0.7,0.5-1.2,1.2-1.3l7.6-0.5c0.7,0,1.2,0.5,1.4,1.1l0,0
				C432.8,72.9,432.3,73.5,431.6,73.5z"/>
			<path class="st110" d="M424,75.6L424,75.6c0.1,2.1,1.9,3.7,4,3.7c2.2,0,4-1.9,4-4.1v-0.1V75L424,75.6z"/>
			<g>
				<path class="st111" d="M439.9,50.8c-0.2-6.6-5.7-11.8-12.2-11.6c-6.2,0.2-11.2,5.3-11.4,11.6c0,2.8,1.1,5.6,3,7.7
					c1.9,2.3,2.8,3,2.8,6.8v0.3c0,0.5,0.5,1,1,1h10c0.5,0,1-0.4,1-1v-0.2c0-4,1-4.6,3-7.2l0,0C438.9,56.2,439.9,53.5,439.9,50.8z"/>
				<path class="st111" d="M437,57.9l0.1-0.2C437.1,57.8,437.1,57.9,437,57.9z"/>
			</g>
			<path class="st112" d="M439.8,50.8c-0.1-6.5-5.4-11.7-11.8-11.6v27.4h5c0.5,0,1-0.4,1-1v-0.2c0-4,1-4.6,3-7.2l0,0
				C438.8,56.1,439.8,53.5,439.8,50.8z"/>
			<path class="st44" d="M433,72.5v-0.4c-0.1-0.6-0.5-1-1.1-1l-3.9,0.3v2.4l4.1-0.3C432.6,73.5,433,73.1,433,72.5
				C433,72.6,433,72.5,433,72.5z"/>
			<path class="st44" d="M433,68.9v-0.4c-0.1-0.6-0.5-1-1.1-1l-3.9,0.4v2.4l4.1-0.3C432.6,69.9,433,69.5,433,68.9z"/>
			<path class="st113" d="M432,74.7l-4,0.3v3.9C430.2,78.9,432,77,432,74.7C432,74.8,432,74.7,432,74.7z"/>
			<ellipse class="st114" cx="427.7" cy="50.7" rx="7.5" ry="7.2"/>
			<path class="st115" d="M428,43.4v14.5c4.1,0.1,7.4-3.1,7.5-7.2C435.4,46.6,432.1,43.4,428,43.4z"/>
			<path class="st116" d="M433.4,55.3c1.4-1.6,2-3.8,1.6-5.9l-7.4,1.3l-4.8,5.5C426,58.8,430.7,58.4,433.4,55.3z"/>
		</g>
	</g>
	<g id="Kubernetes_1_">
		<circle class="st6" cx="678.2" cy="205.1" r="32"/>
		<g id="Kube_1_">
			<path class="st117" d="M694.1,197.4V213c0-0.6-0.3-1.1-0.8-1.4l-13.1-9c-1.2-0.8-2.8-0.8-4,0l-13.1,9c-0.5,0.3-0.8,0.8-0.8,1.4
				v-15.6c0-0.6,0.3-1.1,0.8-1.4l13.1-9c1.2-0.8,2.8-0.8,4,0l13.1,9C693.7,196.3,694.1,196.8,694.1,197.4z"/>
			<path d="M662.3,197.4c0,0.6,0.3,1.1,0.8,1.4l13.1,9c1.2,0.8,2.8,0.8,4,0l13.1-9c0.5-0.3,0.8-0.8,0.8-1.4V213
				c0,0.6-0.3,1.1-0.8,1.4l-13.1,9c-1.2,0.8-2.8,0.8-4,0l-13.1-9c-0.5-0.3-0.8-0.8-0.8-1.4V197.4z"/>
		</g>
	</g>
	<g id="Issue_Tracker_2_">
		<circle class="st6" cx="46.9" cy="205.4" r="32"/>
		<g id="Layer_2_14_">
			<g id="Layer_1-2_13_">
				<g>
					<defs>
						<rect id="SVGID_111_" x="26.9" y="185.4" width="40" height="40"/>
					</defs>
					<clipPath id="SVGID_1_">
						<use xlink:href="#SVGID_111_"  style="overflow:visible;"/>
					</clipPath>
					<g style="clip-path:url(#SVGID_1_);">
						<g>
							<defs>
								<rect id="SVGID_113_" x="26.9" y="185.4" width="40" height="40"/>
							</defs>
							<clipPath id="SVGID_2_">
								<use xlink:href="#SVGID_113_"  style="overflow:visible;"/>
							</clipPath>
							<g style="clip-path:url(#SVGID_2_);">
								<path class="st21" d="M38.8,207.3c-0.1-0.3-0.1-0.7-0.2-1c0-0.1,0-0.1,0-0.2l0,0c-0.1-0.9,0-1.7,0.2-2.6l0,0
									c0,0,0-0.1,0-0.2c0,0,0-0.1,0-0.1c0,0,0-0.1,0-0.1s0-0.1,0-0.2s0,0,0,0c0.3-0.9,0.7-1.7,1.2-2.5l0,0l0.2-0.2l0.1-0.1
									l0.1-0.1c0.2-0.3,0.4-0.5,0.7-0.7c-1.7-3.3-1.6-7.3,0.2-10.6c-1.1,0.4-2.2,0.8-3.2,1.4l0,0l-0.1,0.1h-0.1l0,0c0,0,0,0-0.1,0
									h-0.1l-0.2,0.1l-0.1,0.1c-0.1,0-0.1,0.1-0.2,0.1l-0.2,0.1l-0.2,0.1l-0.2,0.1l-0.2,0.1l-0.2,0.2l-0.2,0.1l-0.1,0.1l-0.3,0.2
									l-0.1,0.1l-0.2,0.2c-0.1,0-0.1,0.1-0.1,0.1l-0.1,0.1c0,0-0.1,0.1-0.1,0.1l-0.1,0.2l-0.2,0.1l-0.1,0.1c0,0-0.1,0.1-0.1,0.1
									l-0.1,0.1c-0.1,0-0.1,0.1-0.2,0.1c0,0-0.1,0.1-0.1,0.1l-0.1,0.2l-0.2,0.2l-0.2,0.3c0,0-0.1,0.1-0.1,0.1c0,0-0.1,0.1-0.1,0.2
									c0,0-0.1,0.1-0.1,0.1c0,0.1-0.1,0.1-0.1,0.2c0,0-0.1,0.1-0.1,0.1l-0.1,0.2c0,0-0.1,0.1-0.1,0.1c0,0,0,0.1-0.1,0.1l-0.1,0.1
									l-0.1,0.2c0,0.1-0.1,0.1-0.2,0.2l-0.1,0.1l0,0l-0.1,0.2l-0.1,0.2c-0.1,0.1-0.2,0.2-0.2,0.4l-0.2,0.4l-0.1,0.1l-0.1,0.2
									c0,0,0,0.1-0.1,0.1c0,0.1-0.1,0.2-0.1,0.2c0,0.1,0,0.1-0.1,0.2l-0.1,0.3v0.2c0,0.1-0.1,0.2-0.1,0.2c0,0,0,0.1-0.1,0.1
									l-0.1,0.3c0,0,0,0.1,0,0.1l-0.1,0.4l0,0c-0.1,0.1-0.1,0.2-0.1,0.4c0,0.1,0,0.1,0,0.1c0,0,0,0.2-0.1,0.3s0,0.1,0,0.2
									l-0.1,0.2l0,0v0.1c0,0,0,0.1,0,0.1l-0.2,0.2l0,0c0,0,0,0.1,0,0.1l-0.2,0.6l0,0C31.7,205.1,35.1,207.1,38.8,207.3"/>
							</g>
						</g>
						<g>
							<defs>
								<rect id="SVGID_115_" x="26.9" y="185.4" width="40" height="40"/>
							</defs>
							<clipPath id="SVGID_4_">
								<use xlink:href="#SVGID_115_"  style="overflow:visible;"/>
							</clipPath>
							<g class="st19">
								<path class="st23" d="M44.5,213.3c-0.3-0.1-0.6-0.2-0.9-0.3l-0.2-0.1l0,0c-0.8-0.4-1.5-0.9-2.2-1.5l0,0l-0.1-0.1l-0.1-0.1
									l-0.1-0.1l-0.1-0.1l0,0c-0.6-0.7-1.1-1.5-1.5-2.3l0,0l-0.1-0.2l-0.1-0.1c0,0,0-0.1,0-0.1c-0.1-0.3-0.2-0.6-0.3-1
									c-3.7-0.2-7.2-2.2-9.1-5.4c-0.2,1.1-0.4,2.3-0.4,3.5v0.4l0,0v0.2c0,0.1,0,0.2,0,0.2c0,0.1,0,0.1,0,0.2s0,0.1,0,0.2
									c0,0.1,0,0.1,0,0.2c0,0.1,0,0.1,0,0.2c0,0.1,0,0.1,0,0.2c0,0.1,0,0.1,0,0.2c0,0.1,0,0.1,0,0.2v0.2c0,0.1,0,0.1,0,0.2
									l0.1,0.4v0.2c0,0.1,0,0.1,0,0.2c0,0.1,0,0.1,0,0.2c0,0.1,0,0.1,0,0.2c0,0.1,0,0.1,0,0.2c0,0.1,0,0.1,0,0.2
									c0.1,0.1,0,0.1,0,0.2c0,0.1,0,0.1,0,0.2c0,0.1,0,0.1,0.1,0.2c0,0.1,0,0.1,0,0.2c0,0.1,0,0.1,0,0.2c0,0.1,0,0.1,0,0.2
									l0.1,0.2c0,0.1,0,0.1,0.1,0.2c0,0.1,0.1,0.2,0.1,0.3l0.1,0.2c0,0.1,0,0.1,0.1,0.2c0,0.1,0,0.1,0.1,0.2c0,0.1,0,0.1,0.1,0.2
									l0.1,0.2c0,0.1,0,0.1,0.1,0.2l0.1,0.2v0.1l0.1,0.2l0.1,0.2c0,0.1,0.1,0.2,0.1,0.2l0.1,0.1c0,0,0,0,0,0.1l0.1,0.2
									c0,0,0,0.1,0.1,0.1l0.2,0.4c0.1,0.1,0.1,0.2,0.2,0.4c0,0,0,0.1,0.1,0.1l0.2,0.2l0.1,0.1l0.1,0.2l0.1,0.1
									c0,0.1,0.1,0.1,0.1,0.2l0.1,0.1l0.7,0.2l0.1,0.1l0.2,0.2l0.1,0.1c0.1,0.1,0.2,0.2,0.3,0.3l0,0l0.2,0.3l0.2,0.1l0.2,0.2
									l0.1,0.1l0.1,0.2l0,0l0.1,0.1l0.1,0.1l0.2,0.2l0,0l0.1,0.1c0.2,0.2,0.3,0.3,0.5,0.4l0,0C39,218.4,42.5,216.4,44.5,213.3"/>
							</g>
						</g>
						<g>
							<defs>
								<rect id="SVGID_117_" x="26.9" y="185.4" width="40" height="40"/>
							</defs>
							<clipPath id="SVGID_6_">
								<use xlink:href="#SVGID_117_"  style="overflow:visible;"/>
							</clipPath>
							<g class="st20">
								<path class="st25" d="M52.6,211.4c-0.2,0.2-0.5,0.4-0.8,0.6l-0.2,0.1l0,0c-0.7,0.5-1.5,0.9-2.3,1.1l0,0h-0.2h-0.1l-0.2,0.1
									h-0.2l0,0c-0.9,0.2-1.8,0.3-2.8,0.2h-0.1h-0.2h-0.1h-0.1c-0.3-0.1-0.7-0.1-1-0.2c-2,3.1-5.5,5-9.2,5.1
									c0.9,0.8,1.8,1.5,2.8,2.1l0,0l0.3,0.1h0.1l0,0h0.1h0.1l0.2,0.1c0.1,0,0.1,0.1,0.2,0.1l0.2,0.1l0.2,0.1l0.2,0.1l0.2,0.1
									l0.3,0.2l0.2,0.1l0.2,0.1l0.2,0.1l0.3,0.1l0.2,0.1l0.2,0.1l0.2,0.1l0.2,0.1l0.2,0.1l0.2,0.1h0.2h0.2l0.2,0h0.2h0.2H43
									l0.2,0.1h0.2l0.4,0.1H44h0.2h0.2h0.2h0.2H45h0.2h0.3h0.2h2.6h0.2h0.2h0.2H49h0.1h0.3h0.1l0.4-0.1l0,0l0.4-0.1h0.1
									c0.1,0,0.2,0,0.3-0.1l0.1,0.3h0.2l0,0h0.1h0.1l0.2-0.1l0,0h0.1l0.6-0.2l0,0C54.2,218.9,54.3,214.8,52.6,211.4"/>
							</g>
						</g>
						<g>
							<defs>
								<rect id="SVGID_119_" x="26.9" y="185.4" width="40" height="40"/>
							</defs>
							<clipPath id="SVGID_8_">
								<use xlink:href="#SVGID_119_"  style="overflow:visible;"/>
							</clipPath>
							<g class="st22">
								<path class="st27" d="M54.9,203.5c0.1,0.3,0.1,0.7,0.2,1c0,0.1,0,0.1,0,0.2l0,0c0.1,0.9,0,1.7-0.2,2.6l0,0
									c0,0.1,0,0.1,0,0.2c0,0,0,0.1,0,0.1c0,0,0,0.1,0,0.1c0,0.1,0,0.1,0,0.2l0,0c-0.3,0.9-0.7,1.7-1.2,2.5l0,0l-0.1,0.2l-0.1,0.1
									l-0.1,0.1c-0.2,0.3-0.4,0.5-0.7,0.7c1.7,3.3,1.6,7.3-0.2,10.6c1.1-0.4,2.2-0.8,3.2-1.4l0,0l0.3-0.2H56l0,0c0,0,0,0,0.1,0
									l0.1-0.1l0.2-0.1l0.1-0.1l0.2-0.1l0.2-0.1l0.2-0.1l0.2-0.1l0.2-0.1l0.1-0.1l0.2-0.1l0.1-0.1l0.3-0.2l0.1-0.1l0.2-0.1
									c0,0,0.1-0.1,0.1-0.1l0.2-0.1l0.1-0.1c0,0,0.1-0.1,0.2-0.1l0.1-0.1l0.1-0.1l0.2-0.1l0.1-0.1l0.1-0.1l0.1-0.1l0.1-0.2
									l0.2-0.2l0.2-0.3c0,0,0.1-0.1,0.1-0.1l0.1-0.2c0,0,0.1-0.1,0.1-0.1c0-0.1,0.1-0.1,0.1-0.2c0,0,0.1-0.1,0.1-0.1l0.1-0.2
									l0.1-0.1c0,0,0-0.1,0.1-0.1l0.1-0.2l0.1-0.1c0-0.1,0.1-0.1,0.1-0.2l0.1-0.1v-0.1l0.1-0.2l0-0.2c0.1-0.1,0.2-0.2,0.2-0.4
									l0.2-0.4c0,0,0-0.1,0.1-0.1l0.1-0.2c0-0.1,0-0.1,0.1-0.1c0-0.1,0.1-0.2,0.1-0.2c0-0.1,0-0.1,0.1-0.1c0-0.1,0.1-0.2,0.1-0.2
									l0.1-0.1l0.1-0.2c0,0,0-0.1,0.1-0.1l0.1-0.3v-0.1c0-0.1,0.1-0.3,0.1-0.4l0,0c0-0.1,0.1-0.2,0.1-0.4s0-0.1,0-0.1
									c0,0,0-0.2,0.1-0.3s0-0.1,0-0.1l0.1-0.2c0,0,0,0,0-0.1V210c0,0,0-0.1,0-0.1l0.1-0.2l0,0c0,0,0-0.1,0-0.1l0.2-0.6l0,0
									C61.9,205.8,58.6,203.8,54.9,203.5"/>
							</g>
						</g>
						<g>
							<defs>
								<rect id="SVGID_121_" x="26.9" y="185.4" width="40" height="40"/>
							</defs>
							<clipPath id="SVGID_10_">
								<use xlink:href="#SVGID_121_"  style="overflow:visible;"/>
							</clipPath>
							<g class="st24">
								<path class="st29" d="M49.3,197.4c0.3,0.1,0.6,0.2,0.9,0.3l0.2,0.1l0,0c0.8,0.4,1.5,0.9,2.1,1.4l0,0l0.1,0.1
									c0,0,0,0,0.1,0.1l0.1,0.1l0.1,0.1l0,0c0.6,0.7,1.1,1.5,1.5,2.3c0,0,0,0,0,0.1l0.1,0.2v0.1c0,0,0,0.1,0,0.1
									c0.1,0.3,0.2,0.6,0.3,1c3.7,0.2,7.2,2.2,9.1,5.4c0.2-1.1,0.4-2.3,0.4-3.5V205l0,0v-0.2c0-0.1,0-0.1,0-0.2s0-0.1,0-0.2
									c0-0.1,0-0.1,0-0.2c0-0.1,0-0.1,0-0.2c0-0.1,0-0.1,0-0.2c0-0.1,0-0.1,0-0.2c0-0.1,0-0.1,0-0.2c0-0.1,0-0.1,0-0.2v-0.2
									c0-0.1,0-0.1,0-0.2l-0.1-0.4v-0.2c0-0.1,0-0.1,0-0.2c0-0.1,0-0.1,0-0.2c0-0.1,0-0.1,0-0.2c0-0.1,0-0.1,0-0.2
									c0-0.1,0-0.1,0-0.2v-0.2c0-0.1,0-0.1-0.1-0.2c0-0.1,0-0.1,0-0.2c0-0.1,0-0.1,0-0.2c0-0.1,0-0.1,0-0.2c0-0.1,0-0.1,0-0.2
									L64,200c0-0.1,0-0.1-0.1-0.2l-0.1-0.3l-0.1-0.2c0-0.1,0-0.1-0.1-0.2c0-0.1,0-0.1-0.1-0.2c0-0.1,0-0.1-0.1-0.2l-0.1-0.2
									c0-0.1,0-0.1-0.1-0.2l-0.4-0.1v-0.1l-0.1-0.2l-0.1-0.2c0-0.1-0.1-0.2-0.1-0.2l-0.1-0.1v-0.1l-0.1-0.2c0,0,0-0.1-0.1-0.1
									l-0.2-0.4c-0.1-0.1-0.1-0.2-0.2-0.4c0,0,0-0.1-0.1-0.1l-0.2-0.2l-0.1-0.1l-0.2-0.2l-0.1-0.1l-0.1-0.2l-0.1-0.1l-0.2-0.2
									l-0.1-0.1l-0.2-0.2l-0.1-0.1c-0.1-0.1-0.2-0.2-0.3-0.3l0,0l-0.2-0.3l-0.1-0.1l-0.2-0.2l-0.1-0.1c0-0.1-0.1-0.1-0.2-0.2l0,0
									l-0.1-0.1l-0.1-0.1l-0.2-0.2l0,0l-0.1-0.1c-0.2-0.1-0.3-0.3-0.5-0.4l0,0C54.8,192.4,51.3,194.3,49.3,197.4"/>
							</g>
						</g>
						<g>
							<defs>
								<rect id="SVGID_123_" x="26.9" y="185.4" width="40" height="40"/>
							</defs>
							<clipPath id="SVGID_12_">
								<use xlink:href="#SVGID_123_"  style="overflow:visible;"/>
							</clipPath>
							<g class="st26">
								<path class="st31" d="M41.2,199.4c0.2-0.2,0.5-0.4,0.8-0.6l0.1-0.1l0,0c0.7-0.5,1.5-0.9,2.3-1.1l0,0h0.2h0.1h0.1h0.2l0,0
									c0.9-0.2,1.8-0.3,2.8-0.2h0H48h0.1h0.1c0.3,0.1,0.7,0.1,1,0.2c2-3.2,5.5-5.2,9.3-5.3c-0.9-0.8-1.8-1.5-2.8-2.1l0,0l-0.3-0.2
									h-0.1l0,0h-0.1h-0.1l-0.2-0.1l-0.2-0.1l-0.2-0.1l-0.2-0.1l-0.2-0.1l-0.2-0.1l-0.2-0.2l-0.2-0.1l-0.2-0.1l-0.2-0.1l-0.3-0.1
									l-0.2-0.1l-0.2-0.1l-0.2-0.1l-0.2-0.1l-0.2-0.1l-0.2-0.1l-0.2,0h-0.2l-0.2-0.1h-0.2l-0.2-0.1h-0.2h-0.2l-0.2-0.1l-0.3-0.1
									h-0.2h-0.2c-0.1,0-0.1,0-0.2,0h-0.2H49h-0.2h-0.7h-0.3h-2h-0.3h-0.2h-0.2h-0.2h-0.2h-0.1h-0.3h-0.1l-0.4,0.1l0,0l-0.4,0.1
									h-0.1l-0.4,0h-0.2h-0.2l0,0h-0.1h-0.1l-0.2,0.1l0,0h-0.1l-0.6,0.2l0,0C39.5,192,39.4,196,41.2,199.4"/>
							</g>
						</g>
					</g>
				</g>
			</g>
		</g>
	</g>
	<g id="PR_Pipeline_2_">
		<circle class="st6" cx="174.6" cy="57.1" r="32"/>
		<g id="CI_x5F_CD_">
			<g id="e18fe981-7760-4f0f-92d6-295e583f5df5_11_">
				<g>
					<path class="st105" d="M187.6,59.2c-1.5,6.3-6.8,10.9-13.4,10.9c-4.1,0.1-8-1.8-10.4-5.2l7.2-7.4l0.8,0.8l-0.8-0.8l0,0l1.1,1.3
						l1.7-5.9l-5.8,1.7l1.1,1.1l-1.7,2l-4.9,5c-1-1.7-1.6-3.5-1.7-5.4l-2.1-3.1c-0.1,0.7-0.2,1.5-0.1,2.2c0,8.9,7.3,16.3,16.1,16.3
						c6.9-0.1,13-4.4,15.2-10.9L187.6,59.2z"/>
					<polyline class="st106" points="162.3,62.7 169,55.7 168,54.6 173.8,52.9 163.8,62.8 					"/>
				</g>
				<g>
					<path class="st106" d="M173.8,72.5c6.9-0.1,13-4.4,15.2-10.9l-1.1-1.3c-1.9,7.8-9.8,12.5-17.6,10.6
						c-6.7-1.6-11.3-7.7-11.1-14.5v-0.7l-0.8-1.5c-0.1,0.7-0.2,1.5-0.1,2.2c-0.3,8.6,6.6,15.8,15.2,16.1
						C173.5,72.5,173.6,72.5,173.8,72.5z"/>
					<line class="st10" x1="162.3" y1="62.8" x2="163.8" y2="63.4"/>
				</g>
			</g>
			<g id="b4a44eff-a6ab-4c1f-a314-3899682236f1_11_">
				<g>
					<path class="st107" d="M161.1,54c1.5-6.3,6.8-10.9,13.4-10.9c4.1-0.1,8,1.8,10.4,5.2l-7.2,7.4l-0.6-0.8l0.8,0.8l0,0l-1.3-1.3
						l-1.7,5.9l5.8-1.7l-1.1-1.1l2-2l4.9-5c0.8,1.7,1.4,3.6,1.5,5.4l2.1,3.1c0.1-0.6,0.2-1.3,0.1-2c0-8.9-7.2-16.3-16.1-16.3
						c-6.8,0.1-12.8,4.5-14.9,10.9L161.1,54z"/>
					<polyline class="st108" points="185.1,48.3 177.8,55.7 176.8,54.5 175.1,60.3 184.8,50.3 					"/>
				</g>
				<g>
					<path class="st108" d="M174.5,40.8c-6.9,0.1-13,4.4-15.2,10.9l1.1,1.3c1.9-7.8,9.8-12.5,17.6-10.6c6.7,1.6,11.3,7.7,11.1,14.5
						v0.7l1.1,1.5c0.1-0.6,0.2-1.3,0.1-2C190.2,47.9,183.2,40.8,174.5,40.8z"/>
					<line class="st10" x1="186.5" y1="50.3" x2="185.1" y2="49.8"/>
				</g>
			</g>
		</g>
	</g>
	<g id="Secrets_x5F_M_7_">
		<g id="Evidence_27_">
			<circle class="st6" cx="375.4" cy="341.6" r="32"/>
		</g>
		<g id="SM_">
			<path id="a0b40ee2-d03f-4f4d-bdac-455786a37497_5_" class="st125" d="M389.3,357.1h-28.8c-0.9,0-1.6-0.7-1.6-1.6l0,0v-28.8
				c0-0.9,0.7-1.6,1.6-1.6l0,0h28.8c0.9,0,1.6,0.7,1.6,1.6l0,0v28.8C390.9,356.3,390.2,357,389.3,357.1L389.3,357.1z"/>
			<path id="a911bb6b-3938-49c6-85a5-a6d9f93fc6a9_5_" d="M386.3,354.1h-22.8c-0.9,0-1.6-0.7-1.6-1.6l0,0v-22.8
				c0-0.9,0.7-1.6,1.6-1.6l0,0h22.8c0.9,0,1.6,0.7,1.6,1.6l0,0v22.8C387.9,353.3,387.2,354,386.3,354.1L386.3,354.1z"/>
			<rect id="ecf492b2-bdc0-4fad-8ff4-241b71d4bc2c_5_" x="360.9" y="333.1" class="st14" width="3" height="5"/>
			<rect id="be609ff9-8c19-4557-b359-8974d41d5626_5_" x="360.9" y="345.1" class="st14" width="3" height="5"/>
			<ellipse id="a916f02f-75b6-413e-a071-7530c62e2214_5_" class="st14" cx="376" cy="341.1" rx="10" ry="10"/>
			<ellipse id="f8f79b93-ffe5-4faf-b2b2-5a76078dc637_5_" class="st125" cx="376" cy="341.1" rx="7" ry="7"/>
			<rect id="e306f34a-6311-4d92-9672-4879e9c1e5c4_5_" x="375.9" y="340.1" class="st14" width="12" height="3"/>
			<ellipse id="a5191d85-3b0a-4ee1-bcc3-31a3c9b9459b_5_" cx="376" cy="341.1" rx="3" ry="3"/>
			<circle id="eae8a295-ac70-4cfc-8ff0-804f57debe35_5_" class="st14" cx="378" cy="338.1" r="1.5"/>
		</g>
	</g>
	<g>
		<defs>
			<filter id="Adobe_OpacityMaskFilter" filterUnits="userSpaceOnUse" x="467.6" y="326" width="32" height="32">
				<feColorMatrix  type="matrix" values="1 0 0 0 0  0 1 0 0 0  0 0 1 0 0  0 0 0 1 0"/>
			</filter>
		</defs>
		<mask maskUnits="userSpaceOnUse" x="467.6" y="326" width="32" height="32" id="SVGID_14_">
			<g class="st13">
				<g>
					<g>
						<path class="st14" d="M491.6,330v14.3c0,3.2-1.7,6.2-4.5,7.8l-4.5,2.6l-4.5-2.6c-2.8-1.6-4.5-4.6-4.5-7.8V330H491.6
							 M491.6,328h-18c-1.1,0-2,0.9-2,2v14.3c0,3.9,2.1,7.6,5.5,9.5l5.5,3.2l5.5-3.2c3.4-2,5.5-5.6,5.5-9.5V330
							C493.6,328.9,492.7,328,491.6,328L491.6,328z"/>
					</g>
					<linearGradient id="SVGID_16_" gradientUnits="userSpaceOnUse" x1="479.3665" y1="353.7892" x2="501.3665" y2="331.7892">
						<stop  offset="0.13" style="stop-color:#000000;stop-opacity:0"/>
						<stop  offset="0.38" style="stop-color:#000000"/>
					</linearGradient>
					<polygon style="fill:url(#SVGID_16_);" points="482.6,357 496.6,357 496.6,327 485.6,327 485.6,333 482.6,333 					"/>
				</g>
			</g>
		</mask>
		<linearGradient id="SVGID_17_" gradientUnits="userSpaceOnUse" x1="467.6165" y1="358.0392" x2="499.6165" y2="326.0392">
			<stop  offset="0.1" style="stop-color:#9B76F6"/>
			<stop  offset="0.9" style="stop-color:#2467F4"/>
		</linearGradient>
		<rect x="467.6" y="326" style="mask:url(#SVGID_14_);fill:url(#SVGID_17_);" width="32" height="32"/>
		<path class="st18" d="M493.6,340.2V328h-5v2h3v2h-3v2h3v6.1c-1.7,0.4-3,2-3,3.9c0,2.2,1.8,4,4,4s4-1.8,4-4
			C496.6,342.2,495.3,340.6,493.6,340.2z M492.6,346c-1.1,0-2-0.9-2-2c0-1.1,0.9-2,2-2s2,0.9,2,2C494.6,345.1,493.7,346,492.6,346z"
			/>
	</g>
	<g id="Issue_Tracker_1_">
		<circle class="st6" cx="174.6" cy="205.1" r="32"/>
		<g id="Layer_2_15_">
			<g id="Layer_1-2_14_">
				<g>
					<defs>
						<rect id="SVGID_187_" x="154.6" y="185.1" width="40" height="40"/>
					</defs>
					<clipPath id="SVGID_18_">
						<use xlink:href="#SVGID_187_"  style="overflow:visible;"/>
					</clipPath>
					<g style="clip-path:url(#SVGID_18_);">
						<g>
							<defs>
								<rect id="SVGID_189_" x="154.6" y="185.1" width="40" height="40"/>
							</defs>
							<clipPath id="SVGID_19_">
								<use xlink:href="#SVGID_189_"  style="overflow:visible;"/>
							</clipPath>
							<g style="clip-path:url(#SVGID_19_);">
								<path class="st21" d="M166.4,207c-0.1-0.3-0.1-0.7-0.2-1c0-0.1,0-0.1,0-0.2l0,0c-0.1-0.9,0-1.7,0.2-2.6l0,0c0,0,0-0.1,0-0.2
									c0,0,0-0.1,0-0.1c0,0,0-0.1,0-0.1s0-0.1,0-0.2c0-0.1,0,0,0,0c0.3-0.9,0.7-1.7,1.2-2.5l0,0l0.1-0.2l0.1-0.1l0.1-0.1
									c0.2-0.3,0.4-0.5,0.7-0.7c-1.7-3.3-1.6-7.3,0.2-10.6c-1.1,0.4-2.2,0.8-3.2,1.4l0,0l-0.1,0.1h-0.1l0,0c0,0-0.1,0-0.1,0h-0.1
									l-0.2,0.1l-0.2,0.1c-0.1,0-0.1,0.1-0.2,0.1l-0.2,0.1l-0.2,0.1l-0.1,0.1l-0.2,0.1l-0.2,0.2l-0.2,0.1l-0.1,0.1l-0.3,0.2
									l-0.1,0.1l-0.2,0.1c-0.1,0-0.1,0.1-0.1,0.1l-0.1,0.1c0,0-0.1,0.1-0.1,0.1l-0.1,0.2l-0.1,0.1l-0.1,0.1c0,0-0.1,0.1-0.1,0.1
									L162,193c-0.1,0-0.1,0.1-0.2,0.1c0,0-0.1,0.1-0.1,0.1l-0.1,0.2l-0.1,0.2l-0.2,0.3c0,0-0.1,0.1-0.1,0.1c0,0-0.1,0.1-0.1,0.2
									c0,0-0.1,0.1-0.1,0.1c0,0.1-0.1,0.1-0.1,0.2c0,0-0.1,0.1-0.1,0.1l-0.1,0.2c0,0-0.1,0.1-0.1,0.1c0,0,0,0.1-0.1,0.1l-0.1,0.2
									l-0.1,0.1c0,0.1-0.1,0.1-0.1,0.2l-0.1,0.1l0,0l-0.1,0.2l-0.1,0.2c-0.1,0.1-0.1,0.2-0.2,0.4l-0.2,0.4l-0.1,0.1l-0.1,0.2
									c0,0,0,0.1-0.1,0.1c0,0.1-0.1,0.2-0.1,0.2c0,0.1,0,0.1-0.1,0.1l-0.1,0.3v0.2c0,0.1-0.1,0.2-0.1,0.2c0,0,0,0.1-0.1,0.1
									l-0.1,0.3c0,0,0,0.1,0,0.1l-0.1,0.4l0,0c-0.1,0.1-0.1,0.2-0.1,0.4c0,0.1,0,0.1-0.1,0.1c0,0,0,0.2-0.1,0.3
									c-0.1,0.1,0,0.1-0.1,0.1l-0.1,0.2l0,0v0.1c0,0,0,0.1,0,0.1l-0.2,0.2l0,0c0,0,0,0.1,0,0.1l-0.1,0.6l0,0
									C159.4,204.7,162.8,206.7,166.4,207"/>
							</g>
						</g>
						<g>
							<defs>
								<rect id="SVGID_191_" x="154.6" y="185.1" width="40" height="40"/>
							</defs>
							<clipPath id="SVGID_20_">
								<use xlink:href="#SVGID_191_"  style="overflow:visible;"/>
							</clipPath>
							<g style="clip-path:url(#SVGID_20_);">
								<path class="st23" d="M172.2,213c-0.3-0.1-0.6-0.2-0.9-0.3l-0.2-0.1l0,0c-0.8-0.4-1.5-0.9-2.2-1.5l0,0l-0.1-0.1l-0.1-0.1
									l-0.1-0.1l-0.1-0.1l0,0c-0.6-0.7-1.1-1.5-1.5-2.3l0,0l-0.1-0.2l-0.1-0.1c0,0,0-0.1,0-0.1c-0.1-0.3-0.2-0.6-0.3-1
									c-3.7-0.2-7.2-2.2-9.1-5.4c-0.2,1.1-0.4,2.3-0.4,3.5v0.4l0,0v0.2c0,0.1,0,0.1,0,0.2s0,0.1,0,0.2c0,0.1,0,0.2,0,0.2
									c0,0.1,0,0.1,0,0.2c0,0.1,0,0.1,0,0.2c0,0.1,0,0.1,0,0.2c0,0.1,0,0.1,0,0.2c0,0.1,0,0.1,0,0.2v0.2c0,0.1,0,0.1,0,0.2
									l0.1,0.4v0.2c0,0.1,0,0.1,0,0.2c0,0.1,0,0.1,0,0.2c0,0.1,0,0.1,0,0.2s0,0.1,0,0.2s0,0.1,0.1,0.2c0.1,0.1,0,0.1,0,0.2
									s0,0.1,0,0.2c0,0.1,0,0.1,0.1,0.2c0,0.1,0,0.1,0,0.2c0,0.1,0,0.1,0,0.2c0,0.1,0,0.1,0,0.2l0.1,0.2c0,0.1,0,0.1,0.1,0.2
									c0,0.1,0.1,0.2,0.1,0.3l0.1,0.2c0,0.1,0,0.1,0.1,0.2c0,0.1,0,0.1,0.1,0.2c0,0.1,0,0.1,0.1,0.2l0.1,0.2c0,0.1,0,0.1,0.1,0.2
									l0.1,0.2v0.1l0.1,0.2l0.1,0.2c0,0.1,0.1,0.2,0.1,0.2l0.1,0.1c0,0,0,0,0,0l0.1,0.2c0,0,0,0.1,0.1,0.1l0.2,0.4
									c0.1,0.1,0.1,0.2,0.2,0.4c0,0,0,0.1,0.1,0.1l0.1,0.2l0.1,0.1l0.1,0.2l0.1,0.1c0,0.1,0.1,0.1,0.1,0.2l0.1,0.1l0.7,0.2
									l0.1,0.1l0.2,0.2l0.1,0.1c0.1,0.1,0.2,0.2,0.3,0.3l0,0l0.2,0.3l0.1,0.1l0.2,0.2l0.1,0.1l0.2,0.1l0,0l0.1,0.1l0.1,0.1
									l0.2,0.2l0,0l0.1,0.1c0.1,0.1,0.3,0.3,0.5,0.4l0,0C166.6,218,170.1,216.1,172.2,213"/>
							</g>
						</g>
						<g>
							<defs>
								<rect id="SVGID_193_" x="154.6" y="185.1" width="40" height="40"/>
							</defs>
							<clipPath id="SVGID_22_">
								<use xlink:href="#SVGID_193_"  style="overflow:visible;"/>
							</clipPath>
							<g class="st49">
								<path class="st25" d="M180.2,211.1c-0.2,0.2-0.5,0.4-0.8,0.6l-0.1,0.1l0,0c-0.7,0.5-1.5,0.9-2.3,1.1l0,0h-0.2h-0.1l-0.2,0.1
									h-0.2l0,0c-0.9,0.2-1.8,0.3-2.8,0.2h-0.1h-0.2h-0.1h-0.1c-0.3-0.1-0.6-0.1-1-0.2c-2,3.1-5.5,5-9.2,5.1
									c0.9,0.8,1.8,1.5,2.8,2.1l0,0l0.3,0.1h0.1l0,0h0.1h0.1l0.2,0.1c0.1,0,0.1,0.1,0.2,0.1l0.2,0.1l0.2,0.1l0.2,0.1l0.2,0.1
									l0.3,0.2l0.2,0.1l0.2,0.1l0.2,0.1l0.4,0.1l0.2,0.1l0.2,0.1l0.2,0.1l0.2,0.1l0.2,0.1l0.2,0.1h0.2h0.2l0.2,0.1h0.2h0.2h0.2
									l0.2,0h0.2l0.4,0.1h0.2h0.2h0.2h0.2h0.2h0.2h0.2h0.3h0.2h2.6h0.2h0.2h0.2h0.2h0.1h0.3h0.1l0.4-0.1l0,0l0.4-0.1h0.1
									c0.1,0,0.2,0,0.3-0.1l0.1,0.3h0.2l0,0h0.1h0.1l0.2-0.1l0,0h0.1l0.6-0.2l0,0C181.8,218.6,182,214.5,180.2,211.1"/>
							</g>
						</g>
						<g>
							<defs>
								<rect id="SVGID_195_" x="154.6" y="185.1" width="40" height="40"/>
							</defs>
							<clipPath id="SVGID_24_">
								<use xlink:href="#SVGID_195_"  style="overflow:visible;"/>
							</clipPath>
							<g class="st50">
								<path class="st27" d="M182.6,203.2c0.1,0.3,0.1,0.7,0.2,1c0,0.1,0,0.1,0,0.2l0,0c0.1,0.9,0,1.7-0.2,2.6l0,0
									c0,0.1,0,0.1,0,0.2c0,0,0,0.1,0,0.1c0,0,0,0.1,0,0.1c0,0.1,0,0.1,0,0.2l0,0c-0.3,0.9-0.7,1.7-1.2,2.5l0,0l-0.1,0.2l-0.1,0.1
									l-0.1,0.1c-0.2,0.3-0.4,0.5-0.7,0.7c1.7,3.3,1.6,7.3-0.2,10.6c1.1-0.4,2.2-0.8,3.2-1.4l0,0l0.3-0.2h0.1l0,0c0,0,0.1,0,0.1,0
									l0.1-0.1l0.2-0.1l0.2-0.1l0.2-0.1l0.2-0.1l0.2-0.1l0.1-0.1l0.2-0.1l0.1-0.1l0.2-0.1l0.1-0.1l0.3-0.2l0.1-0.1l0.2-0.1
									c0,0,0.1-0.1,0.1-0.1l0.2-0.1l0.1-0.1c0,0,0.1-0.1,0.1-0.1l0.1-0.1l0.1-0.1l0.2-0.1l0.1-0.1l0.1-0.1l0.1-0.1l0.1-0.1
									l0.2-0.2l0.2-0.3c0,0,0.1-0.1,0.1-0.1l0.1-0.2c0,0,0.1-0.1,0.1-0.1c0-0.1,0.1-0.1,0.1-0.2c0,0,0.1-0.1,0.1-0.1l0.1-0.2
									l0.1-0.1c0,0,0-0.1,0.1-0.1l0.1-0.1l0.1-0.2c0-0.1,0.1-0.1,0.1-0.2l0.1-0.1v0l0.1-0.2v-0.2c0.1-0.1,0.1-0.2,0.2-0.4l0.2-0.4
									c0,0,0-0.1,0.1-0.1l0.1-0.2c0-0.1,0-0.1,0.1-0.1c0-0.1,0.1-0.2,0.1-0.2c0-0.1,0-0.1,0.1-0.1c0-0.1,0.1-0.1,0.1-0.2l0.1-0.1
									l0.1-0.2c0,0,0-0.1,0.1-0.1l0.1-0.3v-0.1c0-0.1,0.1-0.3,0.1-0.4l0,0c0-0.1,0.1-0.2,0.1-0.4c0-0.1,0-0.1,0-0.1
									c0,0,0-0.2,0.1-0.3c0-0.1,0-0.1,0-0.1l0.1-0.2c0,0,0,0,0-0.1v-0.1c0,0,0-0.1,0-0.1l0.1-0.2l0,0c0,0,0-0.1,0-0.1l0.1-0.6l0,0
									C189.6,205.5,186.2,203.4,182.6,203.2"/>
							</g>
						</g>
						<g>
							<defs>
								<rect id="SVGID_197_" x="154.6" y="185.1" width="40" height="40"/>
							</defs>
							<clipPath id="SVGID_26_">
								<use xlink:href="#SVGID_197_"  style="overflow:visible;"/>
							</clipPath>
							<g class="st51">
								<path class="st29" d="M176.9,197.1c0.3,0.1,0.6,0.2,0.9,0.3l0.2,0.1l0,0c0.8,0.4,1.5,0.9,2.1,1.4l0,0l0.1,0.1
									c0,0,0,0,0.1,0.1l0.1,0.1l0.1,0.1l0,0c0.6,0.7,1.1,1.5,1.5,2.3c0,0,0,0,0,0.1l0.1,0.2v0.1c0,0,0,0.1,0,0.1
									c0.1,0.3,0.2,0.6,0.3,1c3.7,0.2,7.2,2.2,9.1,5.4c0.2-1.1,0.4-2.3,0.4-3.5v-0.4l0,0v-0.2c0-0.1,0-0.2,0-0.2
									c0-0.1,0-0.1,0-0.2s0-0.1,0-0.2c0-0.1,0-0.1,0-0.2c0-0.1,0-0.1,0-0.2c0-0.1,0-0.1,0-0.2c0-0.1,0-0.1,0-0.2
									c0-0.1,0-0.1,0-0.2v-0.2c0-0.1,0-0.1,0-0.2l-0.1-0.4V202c0-0.1,0-0.1,0-0.2c0-0.1,0-0.1,0-0.2c0-0.1,0-0.1,0-0.2
									c0-0.1,0-0.1,0-0.2c0-0.1,0-0.1-0.1-0.2v-0.2c0-0.1,0-0.1-0.1-0.2c0-0.1,0-0.1,0-0.2c0-0.1,0-0.1,0-0.2c0-0.1,0-0.1-0.1-0.2
									c0-0.1,0-0.1,0-0.2l-0.1-0.2c0-0.1,0-0.1-0.1-0.2l-0.1-0.3l-0.1-0.2c0-0.1,0-0.1-0.1-0.2c0-0.1,0-0.1-0.1-0.2
									c0-0.1,0-0.1-0.1-0.2l-0.1-0.2c0-0.1,0-0.1-0.1-0.2l-0.4-0.1v-0.1l-0.1-0.2l-0.1-0.2c0-0.1-0.1-0.2-0.1-0.2l-0.1-0.1v-0.1
									l-0.1-0.2c0,0,0-0.1-0.1-0.1l-0.2-0.4c-0.1-0.1-0.1-0.2-0.2-0.4c0,0,0-0.1-0.1-0.1l-0.1-0.2l-0.1-0.1l-0.1-0.2l-0.1-0.1
									l-0.1-0.2l-0.1-0.1l-0.2-0.2l-0.1-0.1l-0.2-0.2l-0.1-0.1c-0.1-0.1-0.2-0.2-0.3-0.3l0,0l-0.2-0.3l-0.1-0.2l-0.2-0.2l-0.1-0.1
									c0-0.1-0.1-0.1-0.2-0.1l0,0l-0.1-0.1l-0.1-0.1l-0.2-0.2l0,0l-0.1-0.1c-0.1-0.1-0.3-0.3-0.5-0.4l0,0
									C182.5,192.1,179,194,176.9,197.1"/>
							</g>
						</g>
						<g>
							<defs>
								<rect id="SVGID_199_" x="154.6" y="185.1" width="40" height="40"/>
							</defs>
							<clipPath id="SVGID_28_">
								<use xlink:href="#SVGID_199_"  style="overflow:visible;"/>
							</clipPath>
							<g class="st52">
								<path class="st31" d="M168.8,199.1c0.2-0.2,0.5-0.4,0.8-0.6l0.2-0.1l0,0c0.7-0.5,1.5-0.9,2.3-1.1l0,0h0.2h0.1h0.1h0.2l0,0
									c0.9-0.2,1.8-0.3,2.8-0.2h0.1h0.2h0.1h0.1c0.3,0.1,0.7,0.1,1,0.2c2-3.2,5.5-5.2,9.3-5.3c-0.9-0.8-1.8-1.5-2.8-2.1l0,0
									l-0.3-0.1H183l0,0h-0.1h-0.1l-0.2-0.1l-0.2-0.1l-0.2-0.1l-0.2-0.1l-0.2-0.1l-0.2-0.1l-0.2-0.2l-0.2-0.1l-0.2-0.1l-0.2-0.1
									l-0.4-0.1l-0.2-0.1l-0.2-0.1l-0.2-0.1l-0.2-0.1l-0.2-0.1l-0.2-0.1l-0.2-0.1h-0.2l-0.2-0.1h-0.2l-0.2-0.1h-0.2h-0.2l-0.2-0.1
									l-0.3-0.1h-0.2h-0.2c-0.1,0-0.1,0-0.2,0h-0.2h-0.2h-0.2h-0.7h-0.3h-2h-0.3h-0.2h-0.2h-0.2h-0.2h-0.1H172h-0.1l-0.4,0.1l0,0
									l-0.4,0.1H171l-0.4,0h-0.2h-0.2l0,0h-0.1h-0.1l-0.2,0.1l0,0h-0.1l-0.6,0.2l0,0C167.2,191.7,167.1,195.7,168.8,199.1"/>
							</g>
						</g>
					</g>
				</g>
			</g>
		</g>
	</g>
	<g id="Issue_Tracker_3_">
		<circle class="st6" cx="428.9" cy="205.1" r="32"/>
		<g id="Layer_2_16_">
			<g id="Layer_1-2_15_">
				<g>
					<defs>
						<rect id="SVGID_201_" x="408.9" y="184.8" width="40" height="40"/>
					</defs>
					<clipPath id="SVGID_30_">
						<use xlink:href="#SVGID_201_"  style="overflow:visible;"/>
					</clipPath>
					<g class="st53">
						<g>
							<defs>
								<rect id="SVGID_203_" x="408.9" y="184.8" width="40" height="40"/>
							</defs>
							<clipPath id="SVGID_32_">
								<use xlink:href="#SVGID_203_"  style="overflow:visible;"/>
							</clipPath>
							<g class="st54">
								<path class="st21" d="M420.8,206.7c-0.1-0.3-0.1-0.7-0.2-1c0-0.1,0-0.1,0-0.2l0,0c-0.1-0.9,0-1.7,0.2-2.6l0,0
									c0,0,0-0.1,0-0.2c0,0,0-0.1,0-0.1c0,0,0-0.1,0-0.1c0,0,0-0.1,0-0.2c0-0.1,0,0,0,0c0.3-0.9,0.7-1.7,1.2-2.5l0,0l0.2-0.2
									l0.1-0.1l0.1-0.1c0.2-0.3,0.4-0.5,0.7-0.7c-1.7-3.3-1.6-7.3,0.2-10.6c-1.1,0.4-2.2,0.8-3.2,1.4l0,0l-0.1,0.1h-0.1l0,0
									c0,0,0,0-0.1,0h-0.1l-0.2,0.1l-0.1,0.1c-0.1,0-0.1,0.1-0.2,0.1l-0.1,0.1l-0.2,0.1l-0.2,0.1l-0.2,0.1l-0.2,0.2l-0.2,0.1
									l-0.1,0.1l-0.3,0.2l-0.1,0.1l-0.2,0.1c-0.1,0-0.1,0.1-0.1,0.1l-0.1,0.1c0,0-0.1,0.1-0.1,0.1l-0.1,0.2l-0.1,0.1l-0.1,0.1
									c0,0-0.1,0.1-0.1,0.1l-0.1,0.1c-0.1,0-0.1,0.1-0.2,0.1c0,0-0.1,0.1-0.1,0.1l-0.1,0.2l-0.1,0.2l-0.2,0.3c0,0-0.1,0.1-0.1,0.1
									c0,0-0.1,0.1-0.1,0.2c0,0-0.1,0.1-0.1,0.1c0,0.1-0.1,0.1-0.1,0.2c0,0-0.1,0.1-0.1,0.1l-0.1,0.2c0,0-0.1,0.1-0.1,0.1
									c0,0,0,0.1-0.1,0.1l-0.1,0.1l-0.1,0.1c0,0.1-0.1,0.1-0.2,0.2l-0.1,0.1l0,0l-0.1,0.2l-0.1,0.2c-0.1,0.1-0.1,0.2-0.2,0.4
									l-0.2,0.4l-0.1,0.1l-0.1,0.2c0,0,0,0.1-0.1,0.1c0,0.1-0.1,0.2-0.1,0.2c0,0.1,0,0.1-0.1,0.1l-0.1,0.3v0.2
									c0,0.1-0.1,0.2-0.1,0.2c0,0,0,0.1-0.1,0.1l-0.1,0.3c0,0,0,0.1,0,0.1l-0.1,0.4l0,0c-0.1,0.1-0.1,0.2-0.1,0.4
									c0,0.1,0,0.1-0.1,0.1c0,0,0,0.2-0.1,0.3c-0.1,0.1,0,0.1-0.1,0.1l-0.1,0.2l0,0v0.1c0,0,0,0.1,0,0.1l-0.2,0.2l0,0
									c0,0,0,0.1,0,0.1l-0.1,0.6l0,0C413.7,204.4,417.1,206.5,420.8,206.7"/>
							</g>
						</g>
						<g>
							<defs>
								<rect id="SVGID_205_" x="408.9" y="184.8" width="40" height="40"/>
							</defs>
							<clipPath id="SVGID_34_">
								<use xlink:href="#SVGID_205_"  style="overflow:visible;"/>
							</clipPath>
							<g class="st55">
								<path class="st23" d="M426.5,212.7c-0.3-0.1-0.6-0.2-0.9-0.3l-0.2-0.1l0,0c-0.8-0.4-1.5-0.9-2.2-1.5l0,0l-0.1-0.1l-0.1-0.1
									l-0.1-0.1l-0.1-0.1l0,0c-0.6-0.7-1.1-1.5-1.5-2.3l0,0l-0.1-0.2l-0.1-0.1c0,0,0-0.1,0-0.1c-0.1-0.3-0.2-0.6-0.3-1
									c-3.7-0.2-7.2-2.2-9.1-5.4c-0.2,1.1-0.4,2.3-0.4,3.5v0.4l0,0v0.2c0,0.1,0,0.1,0,0.2s0,0.1,0,0.2c0,0.1,0,0.1,0,0.2
									c0,0.1,0,0.1,0,0.2c0,0.1,0,0.1,0,0.2c0,0.1,0,0.1,0,0.2c0,0.1,0,0.1,0,0.2c0,0.1,0,0.1,0,0.2v0.2c0,0.1,0,0.1,0,0.2
									l0.1,0.4v0.2c0,0.1,0,0.1,0,0.2c0,0.1,0,0.1,0,0.2c0,0.1,0,0.1,0,0.2s0,0.1,0,0.2s0,0.1,0.1,0.2c0,0.1,0,0.1,0,0.2
									s0,0.1,0,0.2c0,0.1,0,0.1,0,0.2c0,0.1,0,0.1,0,0.2c0,0.1,0,0.1,0.1,0.2c0,0.1,0,0.1,0,0.2l0.1,0.2c0,0.1,0,0.1,0.1,0.2
									c0,0.1,0.1,0.2,0.1,0.3l0.1,0.2c0,0.1,0,0.1,0.1,0.2c0,0.1,0,0.1,0.1,0.2c0,0.1,0,0.1,0.1,0.2l0.1,0.2c0,0.1,0,0.1,0.1,0.2
									l0.1,0.2v0.1l0.1,0.2l0.1,0.2c0,0.1,0.1,0.2,0.1,0.2l0.1,0.1c0,0,0,0,0,0l0.1,0.2c0,0,0,0.1,0.1,0.1l0.2,0.4
									c0.1,0.1,0.1,0.2,0.2,0.4c0,0,0,0.1,0.1,0.1l0.1,0.2l0.1,0.1l0.1,0.2l0.1,0.1c0,0.1,0.1,0.1,0.1,0.2l0.1,0.1l0.7,0.2
									l0.1,0.1l0.2,0.2l0.1,0.1c0.1,0.1,0.2,0.2,0.3,0.3l0,0l0.2,0.3l0.1,0.1l0.2,0.2l0.1,0.1l0.1,0.1l0,0l0.1,0.1l0.1,0.1
									l0.2,0.2l0,0l0.1,0.1c0.2,0.1,0.3,0.3,0.5,0.4l0,0C420.9,217.7,424.4,215.8,426.5,212.7"/>
							</g>
						</g>
						<g>
							<defs>
								<rect id="SVGID_207_" x="408.9" y="184.8" width="40" height="40"/>
							</defs>
							<clipPath id="SVGID_35_">
								<use xlink:href="#SVGID_207_"  style="overflow:visible;"/>
							</clipPath>
							<g style="clip-path:url(#SVGID_35_);">
								<path class="st25" d="M434.5,210.8c-0.2,0.2-0.5,0.4-0.8,0.6l-0.1,0.1l0,0c-0.7,0.5-1.5,0.9-2.3,1.1l0,0h-0.2H431l-0.2,0.1
									h-0.2l0,0c-0.9,0.2-1.8,0.3-2.8,0.2h-0.1h-0.2h-0.1h-0.1c-0.3-0.1-0.6-0.1-1-0.2c-2,3.1-5.5,5-9.2,5.1
									c0.9,0.8,1.8,1.5,2.8,2.1l0,0l0.3,0.2h0.1l0,0h0.1h0.1l0.2,0.1c0.1,0,0.1,0.1,0.2,0.1l0.2,0.1l0.2,0.1l0.2,0.1l0.2,0.1
									l0.3,0.2l0.2,0.1l0.2,0.1l0.2,0.1l0.3,0.1l0.2,0.1l0.2,0.1l0.2,0.1l0.2,0.1l0.2,0.1l0.2,0.1h0.2h0.2l0.2,0.1h0.2h0.2h0.2
									l0.2,0.1h0.2l0.4,0.1h0.2h0.2h0.2h0.2h0.2h0.2h0.2h0.3h0.2h2.6h0.2h0.2h0.2h0.2h0.1h0.3h0.1l0.4-0.1l0,0l0.4-0.1h0.1
									c0.1,0,0.2,0,0.3-0.1l0.1,0.3h0.2l0,0h0.1h0.1l0.2-0.1l0,0h0.1l0.6-0.2l0,0C436.2,218.3,436.3,214.2,434.5,210.8"/>
							</g>
						</g>
						<g>
							<defs>
								<rect id="SVGID_209_" x="408.9" y="184.8" width="40" height="40"/>
							</defs>
							<clipPath id="SVGID_36_">
								<use xlink:href="#SVGID_209_"  style="overflow:visible;"/>
							</clipPath>
							<g style="clip-path:url(#SVGID_36_);">
								<path class="st27" d="M436.9,202.9c0.1,0.3,0.1,0.7,0.2,1c0,0.1,0,0.1,0,0.2l0,0c0.1,0.9,0,1.7-0.2,2.6l0,0
									c0,0.1,0,0.1,0,0.2c0,0,0,0.1,0,0.1c0,0,0,0.1,0,0.1c0,0.1,0,0.1,0,0.2l0,0c-0.3,0.9-0.7,1.7-1.2,2.5l0,0l-0.2,0.2l-0.1,0.1
									l-0.1,0.1c-0.2,0.3-0.4,0.5-0.7,0.7c1.7,3.3,1.6,7.3-0.2,10.6c1.1-0.4,2.2-0.8,3.2-1.4l0,0l0.3-0.2h0.1l0,0c0,0,0.1,0,0.1,0
									l0.1-0.1l0.2-0.1l0.1-0.1l0.2-0.1l0.1-0.1l0.2-0.1l0.1-0.1l0.2-0.1l0.1-0.1l0.2-0.1l0.1-0.1l0.3-0.2l0.1-0.1l0.2-0.1
									c0,0,0.1-0.1,0.1-0.1l0.1-0.1l0.1-0.1c0,0,0.1-0.1,0.1-0.1l0.1-0.1l0.1-0.1l0.1-0.2l0.1-0.1l0.1-0.1l0.1-0.1l0.1-0.1
									l0.1-0.2l0.2-0.3c0,0,0.1-0.1,0.1-0.1l0.1-0.2c0,0,0.1-0.1,0.1-0.1c0-0.1,0.1-0.1,0.1-0.2c0,0,0.1-0.1,0.1-0.1l0.1-0.2
									l0.1-0.1c0,0,0-0.1,0.1-0.1l0.1-0.1l0.1-0.2c0-0.1,0.1-0.1,0.1-0.2l0.1-0.1v-0.1l0.1-0.2v-0.2c0.1-0.1,0.1-0.2,0.2-0.4
									l0.2-0.4c0,0,0-0.1,0.1-0.1l0.1-0.2c0-0.1,0-0.1,0.1-0.1c0-0.1,0.1-0.2,0.1-0.2c0-0.1,0-0.1,0.1-0.2c0-0.1,0.1-0.1,0.1-0.2
									l0.1-0.1l0.1-0.2c0,0,0-0.1,0.1-0.1l0.1-0.3V211c0-0.1,0.1-0.3,0.1-0.4l0,0c0-0.1,0.1-0.2,0.1-0.4c0-0.1,0-0.1,0-0.1
									s0-0.2,0.1-0.3c0-0.1,0-0.1,0.1-0.2l0.1-0.2c0,0,0,0,0-0.1v-0.1c0,0,0-0.1,0-0.1l0.1-0.2l0,0c0,0,0-0.1,0-0.1l0.1-0.6l0,0
									C443.9,205.2,440.6,203.2,436.9,202.9"/>
							</g>
						</g>
						<g>
							<defs>
								<rect id="SVGID_211_" x="408.9" y="184.8" width="40" height="40"/>
							</defs>
							<clipPath id="SVGID_37_">
								<use xlink:href="#SVGID_211_"  style="overflow:visible;"/>
							</clipPath>
							<g style="clip-path:url(#SVGID_37_);">
								<path class="st29" d="M431.2,196.8c0.3,0.1,0.6,0.2,0.9,0.3l0.2,0.1l0,0c0.8,0.4,1.5,0.9,2.1,1.4l0,0l0.1,0.1
									c0,0,0,0,0.1,0.1l0.1,0.1l0.1,0.1l0,0c0.6,0.7,1.1,1.5,1.5,2.3c0,0,0,0,0,0.1l0.1,0.2v0.1c0,0,0,0.1,0,0.1
									c0.1,0.3,0.2,0.6,0.3,1c3.7,0.2,7.2,2.2,9.1,5.5c0.2-1.1,0.4-2.3,0.4-3.5v-0.4l0,0v-0.2c0-0.1,0-0.2,0-0.2
									c0-0.1,0-0.1,0-0.2s0-0.1,0-0.2c0-0.1,0-0.1,0-0.2c0-0.1,0-0.1,0-0.2c0-0.1,0-0.1,0-0.2c0-0.1,0-0.1,0-0.2
									c0-0.1,0-0.1,0-0.2v-0.2c0-0.1,0-0.1,0-0.2l-0.1-0.4v-0.2c0-0.1,0-0.2,0-0.2c0-0.1,0-0.1,0-0.2s0-0.1,0-0.2
									c0-0.1,0-0.1,0-0.2c0-0.1,0-0.1-0.1-0.2v-0.2c0-0.1,0-0.1,0-0.2c0-0.1,0-0.1,0-0.2c0-0.1,0-0.1,0-0.2c0-0.1,0-0.1,0-0.2
									c-0.1-0.1,0-0.1,0-0.2l-0.1-0.2c0-0.1,0-0.1-0.1-0.2l-0.1-0.3l-0.1-0.2c0-0.1,0-0.1-0.1-0.2c0-0.1,0-0.1-0.1-0.2
									c0-0.1,0-0.1-0.1-0.2l-0.1-0.2c0-0.1,0-0.1-0.1-0.2l-0.4-0.1v-0.1l-0.1-0.2l-0.1-0.2c0-0.1-0.1-0.2-0.1-0.2l-0.1-0.1v0
									l-0.1-0.2c0,0,0-0.1-0.1-0.1l-0.2-0.4c-0.1-0.1-0.1-0.2-0.2-0.4c0,0,0-0.1-0.1-0.1l-0.1-0.2l-0.1-0.1l-0.1-0.2l-0.1-0.1
									l-0.1-0.2l-0.1-0.1l-0.2-0.2l-0.1-0.1l-0.2-0.2l-0.1-0.1c-0.1-0.1-0.2-0.2-0.3-0.3l0,0l-0.2-0.3l-0.1-0.2l-0.2-0.2l-0.1-0.1
									c0-0.1-0.1-0.1-0.1-0.1l0,0l-0.1-0.1l-0.1-0.1l-0.2-0.2l0,0l-0.1-0.1c-0.1-0.1-0.3-0.3-0.5-0.4l0,0
									C436.8,191.8,433.3,193.7,431.2,196.8"/>
							</g>
						</g>
						<g>
							<defs>
								<rect id="SVGID_213_" x="408.9" y="184.8" width="40" height="40"/>
							</defs>
							<clipPath id="SVGID_39_">
								<use xlink:href="#SVGID_213_"  style="overflow:visible;"/>
							</clipPath>
							<g class="st59">
								<path class="st31" d="M423.2,198.8c0.2-0.2,0.5-0.4,0.8-0.6l0.1-0.1l0,0c0.7-0.5,1.5-0.9,2.3-1.1l0,0h0.2h0.1h0.1h0.2l0,0
									c0.9-0.2,1.8-0.3,2.8-0.2h0h0.2h0.1h0.1c0.3,0.1,0.6,0.1,1,0.2c2-3.2,5.5-5.2,9.3-5.3c-0.9-0.8-1.8-1.5-2.8-2.1l0,0
									l-0.3-0.1h-0.1l0,0h-0.1h-0.1l-0.2-0.1l-0.2-0.1l-0.2-0.1l-0.2-0.1l-0.2-0.1l-0.2-0.1l-0.2-0.2l-0.2-0.1l-0.2-0.1l-0.2-0.1
									l-0.4-0.1l-0.2-0.1l-0.2-0.1l-0.2-0.1l-0.2-0.1l-0.2-0.1l-0.2-0.1l-0.2-0.1h-0.2l-0.2-0.1h-0.2l-0.2-0.1h-0.2h-0.2l-0.2,0
									l-0.4-0.1h-0.2h-0.2c-0.1,0-0.1,0-0.2,0h-0.2H431h-0.2h-0.7h-0.3h-2h-0.3h-0.2h-0.2H427h-0.2h-0.1h-0.3h-0.1l-0.4,0.1l0,0
									l-0.4,0.1h-0.1l-0.4,0h-0.2h-0.2l0,0h-0.1h-0.1l-0.2,0.1l0,0H424l-0.6,0.2l0,0C421.5,191.4,421.4,195.4,423.2,198.8"/>
							</g>
						</g>
					</g>
				</g>
			</g>
		</g>
	</g>
	<g>
		<rect x="293.4" y="51.1" width="8" height="2"/>
		<rect x="293.4" y="47.1" width="12" height="2"/>
		<rect x="293.4" y="43.1" width="12" height="2"/>
		<path d="M290.1,69.1l5.6-10l7.4,6.5c0.5,0.4,1.1,0.6,1.7,0.5s1.1-0.5,1.4-1l7-10.4l-1.7-1.1l-7,10.4l-0.1,0.1l-7.4-6.5
			c-0.5-0.4-1.1-0.6-1.7-0.5s-1.1,0.5-1.4,1l-4.6,8.1V43.1h-2v26c0,1.1,0.9,2,2,2h26v-2H290.1z"/>
		<rect id="_x3C_Transparent_Rectangle_x3E__1_" x="285.4" y="41.1" class="st10" width="32" height="32"/>
	</g>
</g>
<g id="Spacers" class="st212">
</g>
<g id="Text">
	<text id="headerSVG.prPipeline" transform="matrix(0.9993 0 0 1 137.667 109.699)" class="st219 st220">PR Pipeline</text>
	<text id="headerSVG.issue" transform="matrix(0.9993 0 0 1 29.8271 257.6181)" class="st221 st220">Issue</text>
	<text id="headerSVG.tracker" transform="matrix(0.9993 0 0 1 25.6992 275.4179)" class="st221 st220">Tracker</text>
	<text id="headerSVG.app" transform="matrix(0.9993 0 0 1 158.5869 257.6181)" class="st221 st220">App</text>
	<text id="headerSVG.repo" transform="matrix(0.9993 0 0 1 156.4258 274.4179)" class="st221 st220">Repo</text>
	<text id="headerSVG.coderisk" transform="matrix(0.9993 0 0 1 235.7786 108.4725)" class="st222 st219 st220">Code Risk Analyzer</text>
	<text id="headerSVG.ciPipeline" transform="matrix(0.9993 0 0 1 270.4553 257.6186)" class="st221 st220">CI Pipeline</text>
	<text id="headerSVG.cdPipeline" transform="matrix(0.9993 0 0 1 506.2546 257.6186)" class="st221 st220">CD Pipeline</text>
	<text id="headerSVG.repoInventory" transform="matrix(0.9993 0 0 1 404.2581 257.6181)" class="st221 st220">Inventory</text>
	<text id="headerSVG.keyProtect" transform="matrix(0.9993 0 0 1 454.291 396.3416)" class="st222 st219 st220">Key Protect</text>
	<text id="headerSVG.devops" transform="matrix(0.9993 0 0 1 412.6719 114.5574)" class="st222 st219 st220">DevOps</text>
	<text id="headerSVG.insights" transform="matrix(0.9993 0 0 1 412.3994 131.3572)" class="st222 st219 st220">Insights</text>
	<text id="headerSVG.kubernetes" transform="matrix(0.9993 0 0 1 660.8936 257.6186)" class="st221 st220">Kubernetes</text>
	<text id="headerSVG.secrets" transform="matrix(0.9993 0 0 1 351.1548 397.9149)" class="st222 st219 st220">Secrets</text>
	<text id="headerSVG.manager" transform="matrix(0.9993 0 0 1 347.6157 414.7147)" class="st222 st219 st220">Manager</text>
</g>
</svg>
